<?xml version="1.0" encoding="UTF-8"?>
<!DOCTYPE svg PUBLIC "-//W3C//DTD SVG 1.1//EN" "http://www.w3.org/Graphics/SVG/1.1/DTD/svg11.dtd">
<!-- Creator: CorelDRAW 2023 -->
<svg xmlns="http://www.w3.org/2000/svg" xml:space="preserve" width="224.672mm" height="33.8202mm" version="1.1" style="shape-rendering:geometricPrecision; text-rendering:geometricPrecision; image-rendering:optimizeQuality; fill-rule:evenodd; clip-rule:evenodd"
viewBox="0 0 16.5932 2.4978"
 xmlns:xlink="http://www.w3.org/1999/xlink"
 xmlns:xodm="http://www.corel.com/coreldraw/odm/2003">
 <defs>
  <style type="text/css">
   <![CDATA[
    .fil0 {fill:#373435;fill-rule:nonzero}
   ]]>
  </style>
 </defs>
 <g id="Layer_x0020_1">
  <metadata id="CorelCorpID_0Corel-Layer"/>
  <g id="_2774564727440">
   <path class="fil0" d="M-0 1.1184l0.2141 0 0 -0.4665 0.2029 0 0.2892 0.4665 0.2365 0 -0.2988 -0.4825c0.1326,-0.0336 0.2221,-0.1534 0.2221,-0.2988 0,-0.1885 -0.1422,-0.3147 -0.3563,-0.3147l-0.5097 0 0 1.096zm0.2141 -0.6583l0 -0.246 0.2956 0c0.0975,0 0.147,0.0607 0.147,0.123 0,0.0607 -0.0495,0.123 -0.147,0.123l-0.2956 0z"/>
   <polygon id="_1" class="fil0" points="2.0526,1.1184 2.7955,1.1184 2.7955,0.9267 2.2667,0.9267 2.2667,0.6519 2.738,0.6519 2.738,0.4601 2.2667,0.4601 2.2667,0.2141 2.7955,0.2141 2.7955,0.0224 2.0526,0.0224 "/>
   <polygon id="_2" class="fil0" points="3.9086,1.1184 4.1227,1.1184 4.1227,0.6519 4.5941,0.6519 4.5941,0.4601 4.1227,0.4601 4.1227,0.2141 4.6516,0.2141 4.6516,0.0224 3.9086,0.0224 "/>
   <path id="_3" class="fil0" d="M5.7647 1.1184l0.2141 0 0 -0.4665 0.2029 0 0.2892 0.4665 0.2365 0 -0.2988 -0.4825c0.1326,-0.0336 0.2221,-0.1534 0.2221,-0.2988 0,-0.1885 -0.1422,-0.3147 -0.3563,-0.3147l-0.5097 0 0 1.096zm0.2141 -0.6583l0 -0.246 0.2956 0c0.0975,0 0.147,0.0607 0.147,0.123 0,0.0607 -0.0495,0.123 -0.147,0.123l-0.2956 0z"/>
   <polygon id="_4" class="fil0" points="7.8173,1.1184 8.5602,1.1184 8.5602,0.9267 8.0314,0.9267 8.0314,0.6519 8.5027,0.6519 8.5027,0.4601 8.0314,0.4601 8.0314,0.2141 8.5602,0.2141 8.5602,0.0224 7.8173,0.0224 "/>
   <path id="_5" class="fil0" d="M10.0584 1.1408c0.2924,0 0.4873,-0.1374 0.4873,-0.3419 0,-0.401 -0.7142,-0.3068 -0.7142,-0.4761 0,-0.0783 0.0911,-0.131 0.2269,-0.131 0.1278,0 0.2301,0.0687 0.2556,0.1726l0.1965 -0.0495c-0.0511,-0.1885 -0.2317,-0.3148 -0.4522,-0.3148 -0.2636,0 -0.4394,0.1294 -0.4394,0.3227 0,0.3882 0.7142,0.2524 0.7142,0.4761 0,0.0895 -0.1102,0.1502 -0.2748,0.1502 -0.1742,0 -0.2924,-0.0831 -0.2972,-0.2077l-0.2029 0c0.0048,0.2397 0.2045,0.3994 0.5001,0.3994z"/>
   <polygon id="_6" class="fil0" points="11.6396,1.1184 11.8537,1.1184 11.8537,0.6519 12.3586,0.6519 12.3586,1.1184 12.5727,1.1184 12.5727,0.0224 12.3586,0.0224 12.3586,0.4601 11.8537,0.4601 11.8537,0.0224 11.6396,0.0224 "/>
   <polygon id="_7" class="fil0" points="13.7529,1.1184 14.4959,1.1184 14.4959,0.9267 13.967,0.9267 13.967,0.6519 14.4383,0.6519 14.4383,0.4601 13.967,0.4601 13.967,0.2141 14.4959,0.2141 14.4959,0.0224 13.7529,0.0224 "/>
   <path id="_8" class="fil0" d="M15.609 1.1184l0.4266 0c0.3339,0 0.5576,-0.2189 0.5576,-0.548 0,-0.3291 -0.2237,-0.548 -0.5576,-0.548l-0.4266 0 0 1.096zm0.2141 -0.1917l0 -0.7126 0.2125 0c0.2061,0 0.3435,0.1422 0.3435,0.3563 0,0.2141 -0.1374,0.3563 -0.3435,0.3563l-0.2125 0z"/>
   <g>
    <path class="fil0" d="M3.704 2.4978c0.1586,0 0.2649,-0.0765 0.2649,-0.1912 0,-0.0942 -0.0718,-0.1483 -0.2565,-0.1921 -0.1147,-0.0261 -0.1595,-0.0532 -0.1595,-0.0961 0,-0.0625 0.0606,-0.1045 0.1511,-0.1045 0.0839,0 0.152,0.0513 0.1688,0.1278l0.0765 -0.0187c-0.027,-0.1101 -0.125,-0.1837 -0.2453,-0.1837 -0.1408,0 -0.235,0.0718 -0.235,0.1791 0,0.0867 0.0634,0.1352 0.2266,0.1735 0.1362,0.0317 0.1893,0.0634 0.1893,0.1147 0,0.0699 -0.0727,0.1166 -0.1809,0.1166 -0.1194,0 -0.1996,-0.0616 -0.1996,-0.1548l-0.0793 0c0,0.138 0.1119,0.2294 0.2789,0.2294z"/>
    <path id="_1_0" class="fil0" d="M5.0623 2.4978c0.1455,0 0.2518,-0.1045 0.2518,-0.249l0 -0.4001 -0.0839 0 0 0.4001c0,0.0998 -0.0681,0.1744 -0.1679,0.1744 -0.0989,0 -0.1697,-0.0709 -0.1697,-0.1744l0 -0.4001 -0.0839 0 0 0.4001c0,0.1455 0.1073,0.249 0.2537,0.249z"/>
    <path id="_2_1" class="fil0" d="M6.1855 2.4885l0.0839 0 0 -0.3059 0.1324 0 0.1903 0.3059 0.0989 0 -0.1912 -0.3078c0.0905,-0.0112 0.1502,-0.0774 0.1502,-0.1651 0,-0.0998 -0.0746,-0.1669 -0.1875,-0.1669l-0.277 0 0 0.6398zm0.0839 -0.3805l0 -0.1847 0.1931 0c0.0625,0 0.1035,0.0373 0.1035,0.0923 0,0.055 -0.041,0.0923 -0.1035,0.0923l-0.1931 0z"/>
    <polygon id="_3_2" class="fil0" points="7.5307,2.4885 7.6146,2.4885 7.6146,2.1826 7.901,2.1826 7.901,2.1079 7.6146,2.1079 7.6146,1.9233 7.9439,1.9233 7.9439,1.8487 7.5307,1.8487 "/>
    <path id="_4_3" class="fil0" d="M9.1594 2.4885l0.0895 0 -0.263 -0.6398 -0.0858 0 -0.263 0.6398 0.0895 0 0.0849 -0.2136 0.263 0 0.0849 0.2136zm-0.318 -0.2882l0.1017 -0.2556 0.1017 0.2556 -0.2033 0z"/>
    <path id="_5_4" class="fil0" d="M10.3023 2.4978c0.1511,0 0.2733,-0.1045 0.3041,-0.2602l-0.0811 0c-0.0242,0.111 -0.1138,0.1856 -0.2229,0.1856 -0.1371,0 -0.2285,-0.1017 -0.2285,-0.2546 0,-0.153 0.0914,-0.2546 0.2285,-0.2546 0.1026,0 0.1903,0.0681 0.2192,0.1707l0.0821 0c-0.0336,-0.1474 -0.1548,-0.2453 -0.3013,-0.2453 -0.1875,0 -0.3124,0.1315 -0.3124,0.3292 0,0.1977 0.125,0.3292 0.3124,0.3292z"/>
    <polygon id="_6_5" class="fil0" points="11.446,2.4885 11.8592,2.4885 11.8592,2.4139 11.5299,2.4139 11.5299,2.1826 11.8256,2.1826 11.8256,2.1079 11.5299,2.1079 11.5299,1.9233 11.8592,1.9233 11.8592,1.8487 11.446,1.8487 "/>
    <path id="_7_6" class="fil0" d="M12.9031 2.4978c0.1586,0 0.2649,-0.0765 0.2649,-0.1912 0,-0.0942 -0.0718,-0.1483 -0.2565,-0.1921 -0.1147,-0.0261 -0.1595,-0.0532 -0.1595,-0.0961 0,-0.0625 0.0606,-0.1045 0.1511,-0.1045 0.0839,0 0.152,0.0513 0.1688,0.1278l0.0765 -0.0187c-0.027,-0.1101 -0.125,-0.1837 -0.2453,-0.1837 -0.1408,0 -0.235,0.0718 -0.235,0.1791 0,0.0867 0.0634,0.1352 0.2266,0.1735 0.1362,0.0317 0.1893,0.0634 0.1893,0.1147 0,0.0699 -0.0727,0.1166 -0.1809,0.1166 -0.1194,0 -0.1996,-0.0616 -0.1996,-0.1548l-0.0793 0c0,0.138 0.1119,0.2294 0.2789,0.2294z"/>
    <g>
     <path class="fil0" d="M0.3166 2.1917c-0.0119,0 -0.0216,-0.0097 -0.0216,-0.0216 0,-0.0119 0.0097,-0.0216 0.0216,-0.0216l2.0194 0c0.0119,0 0.0216,0.0097 0.0216,0.0216 0,0.0119 -0.0097,0.0216 -0.0216,0.0216l-2.0194 0z"/>
     <path class="fil0" d="M14.2571 2.1917c-0.0119,0 -0.0216,-0.0097 -0.0216,-0.0216 0,-0.0119 0.0097,-0.0216 0.0216,-0.0216l2.0194 0c0.0119,0 0.0216,0.0097 0.0216,0.0216 0,0.0119 -0.0097,0.0216 -0.0216,0.0216l-2.0194 0z"/>
    </g>
   </g>
  </g>
 </g>
</svg>
