<?xml version="1.0" encoding="UTF-8"?>
<!DOCTYPE svg PUBLIC "-//W3C//DTD SVG 1.1//EN" "http://www.w3.org/Graphics/SVG/1.1/DTD/svg11.dtd">
<!-- Creator: CorelDRAW 2023 -->
<svg xmlns="http://www.w3.org/2000/svg" xml:space="preserve" width="73.7298mm" height="85.7765mm" version="1.1" style="shape-rendering:geometricPrecision; text-rendering:geometricPrecision; image-rendering:optimizeQuality; fill-rule:evenodd; clip-rule:evenodd"
viewBox="0 0 1.8851 2.1932"
 xmlns:xlink="http://www.w3.org/1999/xlink"
 xmlns:xodm="http://www.corel.com/coreldraw/odm/2003">
 <defs>
  <style type="text/css">
   <![CDATA[
    .fil0 {fill:#373435}
   ]]>
  </style>
 </defs>
 <g id="Layer_x0020_1">
  <metadata id="CorelCorpID_0Corel-Layer"/>
  <path class="fil0" d="M-0 0l0 0.1008 0 1.6831 0.1008 0 0 -1.6831 0.6949 0 0 0c0.2409,0.0014 0.4358,0.1972 0.4358,0.4385 0,0.2422 -0.1963,0.4385 -0.4385,0.4385 -0.0148,0 -0.0294,-0.0007 -0.0438,-0.0022l0 0 -0.0001 -0 -0 -0 -0 -0 -0.0004 -0c-0.0026,0 -0.0047,0.0021 -0.0047,0.0047 0,0.0012 0.0005,0.0023 0.0012,0.0032l0.0808 0.0862 0 -0c0.0038,0.0041 0.0093,0.0067 0.0153,0.0067l0.0006 -0 0 -0 0 0 0 0 0 -0c0.2748,-0.0248 0.4902,-0.2557 0.4902,-0.537 0,-0.297 -0.24,-0.5378 -0.5366,-0.5393l0 -0 -0.6949 0 -0.1008 0zm0.2792 1.0403c0.0109,0.0007 0.0254,0.0025 0.0491,0.0073 0.0183,0.0037 0.0423,0.0092 0.0693,0.0175 0.0277,0.0085 0.0591,0.02 0.0922,0.0355 0.0342,0.0161 0.07,0.0364 0.106,0.0607 0.0332,0.0225 0.0674,0.049 0.1016,0.0796 0.0343,0.0307 0.0678,0.065 0.1007,0.1014 0.0331,0.0366 0.0648,0.0742 0.0956,0.112 0.04,0.049 0.074,0.0921 0.107,0.134l-0.0001 0.0001c0.0208,0.0263 0.0411,0.0521 0.0705,0.0887 0.0277,0.0345 0.0545,0.0671 0.0802,0.0971 0.0255,0.0298 0.0499,0.0571 0.0731,0.0813 0.0233,0.0244 0.0452,0.0455 0.0661,0.0639 0.0209,0.0185 0.0412,0.0347 0.0614,0.0492 0.0197,0.0142 0.0397,0.027 0.0598,0.0387 0.02,0.0117 0.0399,0.022 0.0595,0.0315 0.0199,0.0096 0.0392,0.0182 0.0582,0.0256 0.0195,0.0076 0.0388,0.0141 0.0583,0.0195 0.0189,0.0052 0.0385,0.0095 0.0578,0.013 0.0215,0.0039 0.0428,0.0067 0.0627,0.0087 0.0189,0.0019 0.0361,0.0029 0.0523,0.003 0.0163,0.0002 0.0319,-0.0005 0.0477,-0.0019 0.0208,-0.0019 0.0434,-0.0057 0.0666,-0.0101l0.0001 -0 0.0001 -0 0.0004 -0.0001 0 -0 0 -0 0 -0 0 -0 0 -0 0.0007 -0.0001 0 -0 0 -0 0 -0 0.0001 -0 0.0001 -0 0 -0 0 -0 0 -0 0 -0 0 -0 0 -0 0 -0 0 -0 0 -0 0 -0 0 -0 0 -0 0 -0 0 -0 0 -0 0 -0 0 -0 0 -0 0 -0 0 -0 0 -0 0 -0 0 -0 0 -0 0 -0 0 -0 0 -0 0 -0 0 -0 0 -0 0 -0 0 -0 0 -0 0.0007 -0.0001 0.0007 -0.0001 0 0 0 -0 0 0 0 0 0.0006 -0.0001 0 -0c0.0001,-0 0.0001,-0 0.0001,-0 0.0002,-0 0.0003,-0 0.0005,-0 0.0026,0 0.0047,0.0021 0.0047,0.0047 0,0.0015 -0.0007,0.0028 -0.0017,0.0037l0 0 0 0c-0.0136,0.0101 -0.029,0.0211 -0.0502,0.0337 -0.0213,0.0125 -0.0466,0.0295 -0.066,0.0373 -0.0195,0.0078 -0.0337,0.0127 -0.0452,0.015 -0.0115,0.0023 -0.0289,0.0032 -0.0431,0.0029 -0.0767,-0.0013 -0.1602,-0.0259 -0.2185,-0.0494 -0.0147,-0.0059 -0.0291,-0.0127 -0.0413,-0.0186 -0.0122,-0.006 -0.0223,-0.0112 -0.029,-0.0147 -0.0021,-0.0011 -0.0038,-0.002 -0.0053,-0.0027 -0.0078,-0.0042 -0.0157,-0.0087 -0.0236,-0.0132 -0.0221,-0.0129 -0.0448,-0.0275 -0.0681,-0.0442 -0.0228,-0.0164 -0.0457,-0.0347 -0.0692,-0.0555 -0.0236,-0.0208 -0.0474,-0.0438 -0.072,-0.0695 -0.0247,-0.0258 -0.0504,-0.0545 -0.0771,-0.0857 -0.0265,-0.0309 -0.0539,-0.0643 -0.0821,-0.0994 -0.0166,-0.0207 -0.0435,-0.0548 -0.0709,-0.0895l-0.0002 0c-0.0361,-0.0458 -0.0733,-0.0929 -0.1058,-0.1328 -0.0307,-0.0376 -0.0616,-0.0744 -0.092,-0.1081 -0.0306,-0.0339 -0.0617,-0.0657 -0.0933,-0.0939 -0.0296,-0.0265 -0.0602,-0.0502 -0.0909,-0.0709 -0.0321,-0.0217 -0.0633,-0.0395 -0.0926,-0.0533 -0.0285,-0.0134 -0.0553,-0.0232 -0.0788,-0.0304 -0.0242,-0.0074 -0.0444,-0.0121 -0.0595,-0.0151 -0.0134,-0.0027 -0.0226,-0.0041 -0.0294,-0.0049l0 -0.1009z"/>
 </g>
</svg>
