<?xml version="1.0" encoding="UTF-8"?>
<svg id="Layer_1" xmlns="http://www.w3.org/2000/svg" xmlns:xodm="http://www.corel.com/coreldraw/odm/2003" version="1.1" viewBox="0 0 636.86 95.87">
  <!-- Generator: Adobe Illustrator 29.5.1, SVG Export Plug-In . SVG Version: 2.1.0 Build 141)  -->
  <defs>
    <style>
      .st0 {
        fill: #fefefe;
      }
    </style>
  </defs>
  <g id="Layer_x5F_1">
    <g id="_2774576572992">
      <path class="st0" d="M142.16,95.87c6.08,0,10.17-2.94,10.17-7.34,0-3.62-2.76-5.69-9.84-7.37-4.4-1-6.12-2.04-6.12-3.69,0-2.4,2.33-4.01,5.8-4.01,3.22,0,5.83,1.97,6.48,4.9l2.94-.72c-1.04-4.22-4.8-7.05-9.41-7.05-5.41,0-9.02,2.76-9.02,6.87,0,3.33,2.43,5.19,8.7,6.66,5.23,1.22,7.27,2.43,7.27,4.4,0,2.69-2.79,4.47-6.94,4.47-4.58,0-7.66-2.36-7.66-5.94h-3.04c0,5.3,4.3,8.81,10.7,8.81h0Z"/>
      <path id="_1" class="st0" d="M194.29,95.87c5.58,0,9.67-4.01,9.67-9.56v-15.36h-3.22v15.36c0,3.83-2.61,6.69-6.44,6.69s-6.51-2.72-6.51-6.69v-15.36h-3.22v15.36c0,5.58,4.12,9.56,9.74,9.56Z"/>
      <path id="_2" class="st0" d="M237.41,95.51h3.22v-11.74h5.08l7.3,11.74h3.79l-7.34-11.81c3.47-.43,5.76-2.97,5.76-6.34,0-3.83-2.86-6.41-7.2-6.41h-10.63v24.56h0ZM240.63,80.9v-7.09h7.41c2.4,0,3.97,1.43,3.97,3.54s-1.57,3.54-3.97,3.54h-7.41Z"/>
      <polygon id="_3" class="st0" points="289.04 95.51 292.26 95.51 292.26 83.77 303.25 83.77 303.25 80.9 292.26 80.9 292.26 73.82 304.9 73.82 304.9 70.95 289.04 70.95 289.04 95.51"/>
      <path id="_4" class="st0" d="M351.55,95.51h3.44l-10.1-24.56h-3.29l-10.1,24.56h3.44l3.26-8.2h10.1l3.26,8.2ZM339.34,84.45l3.9-9.81,3.9,9.81h-7.8Z"/>
      <path id="_5" class="st0" d="M395.41,95.87c5.8,0,10.49-4.01,11.67-9.99h-3.12c-.93,4.26-4.37,7.12-8.55,7.12-5.26,0-8.77-3.9-8.77-9.77s3.51-9.77,8.77-9.77c3.94,0,7.3,2.61,8.41,6.55h3.15c-1.29-5.66-5.94-9.41-11.56-9.41-7.2,0-11.99,5.05-11.99,12.64s4.8,12.64,11.99,12.64h0Z"/>
      <polygon id="_6" class="st0" points="439.31 95.51 455.17 95.51 455.17 92.64 442.53 92.64 442.53 83.77 453.88 83.77 453.88 80.9 442.53 80.9 442.53 73.82 455.17 73.82 455.17 70.95 439.31 70.95 439.31 95.51"/>
      <path id="_7" class="st0" d="M495.24,95.87c6.08,0,10.17-2.94,10.17-7.34,0-3.62-2.76-5.69-9.84-7.37-4.4-1-6.12-2.04-6.12-3.69,0-2.4,2.33-4.01,5.8-4.01,3.22,0,5.83,1.97,6.48,4.9l2.94-.72c-1.04-4.22-4.8-7.05-9.41-7.05-5.41,0-9.02,2.76-9.02,6.87,0,3.33,2.43,5.19,8.7,6.66,5.23,1.22,7.27,2.43,7.27,4.4,0,2.69-2.79,4.47-6.94,4.47-4.58,0-7.66-2.36-7.66-5.94h-3.04c0,5.3,4.3,8.81,10.7,8.81h0Z"/>
      <g>
        <path class="st0" d="M12.15,84.12c-.46,0-.83-.37-.83-.83s.37-.83.83-.83h77.51c.46,0,.83.37.83.83s-.37.83-.83.83c0,0-77.51,0-77.51,0Z"/>
        <path class="st0" d="M547.2,84.12c-.46,0-.83-.37-.83-.83s.37-.83.83-.83h77.51c.46,0,.83.37.83.83s-.37.83-.83.83h-77.51Z"/>
      </g>
    </g>
    <path class="st0" d="M0,42.93h8.22v-17.91h7.79l11.1,17.91h9.08l-11.47-18.52c5.09-1.29,8.52-5.89,8.52-11.47,0-7.24-5.46-12.08-13.67-12.08H0s0,42.07,0,42.07ZM8.22,17.66v-9.44h11.34c3.74,0,5.64,2.33,5.64,4.72s-1.9,4.72-5.64,4.72h-11.34Z"/>
    <polygon id="_1_0" class="st0" points="78.78 42.93 107.3 42.93 107.3 35.57 87 35.57 87 25.02 105.09 25.02 105.09 17.66 87 17.66 87 8.22 107.3 8.22 107.3 .86 78.78 .86 78.78 42.93"/>
    <polygon id="_2_1" class="st0" points="150.02 42.93 158.24 42.93 158.24 25.02 176.32 25.02 176.32 17.66 158.24 17.66 158.24 8.22 178.53 8.22 178.53 .86 150.02 .86 150.02 42.93"/>
    <path id="_3_2" class="st0" d="M221.25,42.93h8.22v-17.91h7.79l11.1,17.91h9.08l-11.47-18.52c5.09-1.29,8.52-5.89,8.52-11.47,0-7.24-5.46-12.08-13.67-12.08h-19.56v42.07h0ZM229.47,17.66v-9.44h11.34c3.74,0,5.64,2.33,5.64,4.72s-1.9,4.72-5.64,4.72h-11.34Z"/>
    <polygon id="_4_3" class="st0" points="300.04 42.93 328.55 42.93 328.55 35.57 308.25 35.57 308.25 25.02 326.34 25.02 326.34 17.66 308.25 17.66 308.25 8.22 328.55 8.22 328.55 .86 300.04 .86 300.04 42.93"/>
    <path id="_5_4" class="st0" d="M386.05,43.78c11.22,0,18.7-5.27,18.7-13.12,0-15.39-27.41-11.77-27.41-18.27,0-3,3.5-5.03,8.71-5.03,4.91,0,8.83,2.64,9.81,6.62l7.54-1.9c-1.96-7.24-8.89-12.08-17.35-12.08-10.12,0-16.86,4.97-16.86,12.39,0,14.9,27.41,9.69,27.41,18.27,0,3.43-4.23,5.76-10.55,5.76-6.68,0-11.22-3.19-11.41-7.97h-7.79c.18,9.2,7.85,15.33,19.19,15.33h0Z"/>
    <polygon id="_6_5" class="st0" points="446.74 42.93 454.96 42.93 454.96 25.02 474.34 25.02 474.34 42.93 482.55 42.93 482.55 .86 474.34 .86 474.34 17.66 454.96 17.66 454.96 .86 446.74 .86 446.74 42.93"/>
    <polygon id="_7_6" class="st0" points="527.85 42.93 556.37 42.93 556.37 35.57 536.07 35.57 536.07 25.02 554.16 25.02 554.16 17.66 536.07 17.66 536.07 8.22 556.37 8.22 556.37 .86 527.85 .86 527.85 42.93"/>
    <path id="_8" class="st0" d="M599.09,42.93h16.37c12.82,0,21.4-8.4,21.4-21.03s-8.58-21.03-21.4-21.03h-16.37v42.07h0ZM607.31,35.57V8.22h8.16c7.91,0,13.19,5.46,13.19,13.67s-5.27,13.67-13.19,13.67h-8.16Z"/>
  </g>
</svg>