<?xml version="1.0" encoding="UTF-8"?>
<!DOCTYPE svg PUBLIC "-//W3C//DTD SVG 1.1//EN" "http://www.w3.org/Graphics/SVG/1.1/DTD/svg11.dtd">
<!-- Creator: CorelDRAW 2023 -->
<svg xmlns="http://www.w3.org/2000/svg" xml:space="preserve" width="224.672mm" height="131.175mm" version="1.1" style="shape-rendering:geometricPrecision; text-rendering:geometricPrecision; image-rendering:optimizeQuality; fill-rule:evenodd; clip-rule:evenodd"
viewBox="0 0 32.2801 18.8468"
 xmlns:xlink="http://www.w3.org/1999/xlink"
 xmlns:xodm="http://www.corel.com/coreldraw/odm/2003">
 <defs>
  <style type="text/css">
   <![CDATA[
    .fil0 {fill:#FEFEFE}
    .fil1 {fill:#FEFEFE;fill-rule:nonzero}
   ]]>
  </style>
 </defs>
 <g id="Layer_x0020_1">
  <metadata id="CorelCorpID_0Corel-Layer"/>
  <path class="fil0" d="M11.2524 0l0 0.5665 0 9.458 0.5665 0 0 -9.458 3.905 0 0 0.0002c1.3539,0.0081 2.4491,1.108 2.4491,2.4639 0,1.3608 -1.1032,2.464 -2.464,2.464 -0.083,0 -0.165,-0.0041 -0.2459,-0.0122l0 0 -0.0004 -0 -0.0002 -0 -0.0002 -0 -0.0023 -0.0001c-0.0146,0 -0.0265,0.0118 -0.0265,0.0265 0,0.0068 0.0026,0.0131 0.0069,0.0178l0.4541 0.4842 0.0001 -0c0.0214,0.0232 0.052,0.0378 0.086,0.0378l0.0034 -0 0.0002 -0 0.0001 0 0.0001 0 0.0002 -0c1.5444,-0.1394 2.7548,-1.437 2.7548,-3.0178 0,-1.6687 -1.3488,-3.0223 -3.0156,-3.0304l0 -0.0002 -3.905 0 -0.5665 0zm1.569 5.846c0.0615,0.0038 0.1427,0.0139 0.2761,0.041 0.1027,0.0208 0.2374,0.0517 0.3895,0.0983 0.1556,0.0477 0.3324,0.1122 0.5183,0.1998 0.1922,0.0905 0.3933,0.2046 0.5954,0.3414 0.1866,0.1263 0.3787,0.2754 0.5707,0.4473 0.1925,0.1723 0.381,0.3652 0.5661,0.5697 0.186,0.2056 0.3639,0.4172 0.5371,0.6294 0.2246,0.2751 0.4158,0.5176 0.6014,0.753l-0.0007 0.0005c0.1167,0.1479 0.2311,0.2929 0.3959,0.4982 0.1559,0.1941 0.3063,0.377 0.4505,0.5454 0.1433,0.1675 0.2806,0.3209 0.4109,0.457 0.1311,0.137 0.254,0.2556 0.3713,0.3593 0.1175,0.1039 0.2316,0.195 0.3448,0.2765 0.1106,0.0797 0.2229,0.1516 0.336,0.2174 0.1126,0.0656 0.224,0.1239 0.3342,0.1771 0.112,0.0541 0.2205,0.1024 0.3271,0.1439 0.1094,0.0426 0.218,0.0793 0.3275,0.1095 0.1063,0.0293 0.2161,0.0535 0.3247,0.0731 0.1207,0.0218 0.2403,0.0378 0.3523,0.0488 0.1062,0.0104 0.2029,0.0161 0.2939,0.0171 0.0913,0.0009 0.1794,-0.0027 0.268,-0.0109 0.1171,-0.0109 0.2441,-0.0321 0.3742,-0.0566l0.0003 -0.0001 0.0004 -0.0001 0.002 -0.0004 0.0002 -0 0.0002 -0 0.0002 -0 0.0002 -0 0.0002 -0 0.0038 -0.0007 0.0003 -0.0001 0.0003 -0 0.0003 -0.0001 0.0005 -0.0001 0.0003 -0.0001 0.0003 -0 0.0003 -0.0001 0.0003 -0.0001 0.0003 -0 0.0003 -0.0001 0.0003 -0 0.0003 -0.0001 0.0003 -0.0001 0.0003 -0 0.0003 -0.0001 0.0003 -0 0.0003 -0.0001 0.0003 -0 0.0003 -0.0001 0.0003 -0.0001 0.0002 -0 0.0001 -0 0.0003 -0.0001 0.0003 -0 0.0003 -0 0.0003 -0.0001 0.0003 -0 0.0003 -0.0001 0.0002 -0 0.0003 -0 0.0002 -0.0001 0.0003 -0 0.0002 -0 0.0002 -0.0001 0.0002 -0 0.0002 -0 0.0002 -0 0.0002 -0 0.0042 -0.0008 0.0038 -0.0007 0 0 0.0001 -0 0 0 0 0 0.0033 -0.0006 0.0002 -0c0.0003,-0 0.0003,-0 0.0003,-0 0.0009,-0.0001 0.0019,-0.0002 0.0029,-0.0002 0.0147,0 0.0266,0.0119 0.0266,0.0266 0,0.0083 -0.0038,0.0158 -0.0098,0.0206l0 0.0001 0 0c-0.0764,0.0569 -0.1628,0.1188 -0.2823,0.1893 -0.1196,0.0705 -0.2617,0.1658 -0.3711,0.2099 -0.1094,0.0441 -0.1893,0.0714 -0.254,0.0844 -0.0647,0.013 -0.1623,0.0177 -0.2421,0.0165 -0.431,-0.007 -0.9005,-0.1458 -1.228,-0.2775 -0.0829,-0.0333 -0.1634,-0.0711 -0.2322,-0.1047 -0.0687,-0.0336 -0.1255,-0.063 -0.163,-0.0827 -0.0116,-0.0061 -0.0213,-0.0112 -0.0296,-0.0153 -0.044,-0.0239 -0.0881,-0.0486 -0.1323,-0.0744 -0.1245,-0.0725 -0.2518,-0.1543 -0.3824,-0.2484 -0.128,-0.0923 -0.2568,-0.1951 -0.389,-0.3119 -0.1325,-0.1171 -0.2664,-0.2461 -0.4045,-0.3903 -0.1389,-0.145 -0.2834,-0.3064 -0.433,-0.4813 -0.1488,-0.1739 -0.3028,-0.3611 -0.4615,-0.5587 -0.0934,-0.1163 -0.2444,-0.3077 -0.3985,-0.5031l-0.0011 0c-0.2029,-0.2573 -0.4118,-0.5222 -0.5948,-0.7463 -0.1726,-0.2115 -0.3459,-0.418 -0.5172,-0.6072 -0.1721,-0.1902 -0.3468,-0.369 -0.524,-0.5277 -0.1661,-0.1487 -0.3385,-0.2819 -0.511,-0.3987 -0.1802,-0.1219 -0.3556,-0.2218 -0.5202,-0.2993 -0.16,-0.0753 -0.3109,-0.1304 -0.4431,-0.171 -0.1358,-0.0417 -0.2494,-0.0679 -0.3341,-0.0851 -0.0754,-0.0153 -0.1267,-0.0233 -0.1654,-0.0275l0 -0.5667z"/>
  <g id="_2773711672112">
   <path class="fil1" d="M7.2057 18.8468c0.3084,0 0.5153,-0.1488 0.5153,-0.372 0,-0.1833 -0.1397,-0.2885 -0.499,-0.3738 -0.2232,-0.0508 -0.3103,-0.1034 -0.3103,-0.1869 0,-0.1216 0.1179,-0.2032 0.2939,-0.2032 0.1633,0 0.2957,0.0998 0.3284,0.2486l0.1488 -0.0363c-0.0526,-0.2141 -0.2431,-0.3574 -0.4772,-0.3574 -0.274,0 -0.4572,0.1397 -0.4572,0.3484 0,0.1687 0.1234,0.2631 0.4409,0.3375 0.2649,0.0617 0.3683,0.1234 0.3683,0.2232 0,0.1361 -0.1415,0.2268 -0.352,0.2268 -0.2322,0 -0.3883,-0.1198 -0.3883,-0.3012l-0.1542 0c0,0.2685 0.2177,0.4463 0.5425,0.4463z"/>
   <path id="_1" class="fil1" d="M9.848 18.8468c0.283,0 0.4899,-0.2032 0.4899,-0.4844l0 -0.7784 -0.1633 0 0 0.7784c0,0.1941 -0.1324,0.3393 -0.3266,0.3393 -0.1923,0 -0.3302,-0.1379 -0.3302,-0.3393l0 -0.7784 -0.1633 0 0 0.7784c0,0.283 0.2087,0.4844 0.4935,0.4844z"/>
   <path id="_2" class="fil1" d="M12.0332 18.8287l0.1633 0 0 -0.5951 0.2577 0 0.3701 0.5951 0.1923 0 -0.372 -0.5988c0.176,-0.0218 0.2921,-0.1506 0.2921,-0.3211 0,-0.1941 -0.1451,-0.3248 -0.3647,-0.3248l-0.5389 0 0 1.2447zm0.1633 -0.7403l0 -0.3592 0.3756 0c0.1216,0 0.2014,0.0726 0.2014,0.1796 0,0.1071 -0.0798,0.1796 -0.2014,0.1796l-0.3756 0z"/>
   <polygon id="_3" class="fil1" points="14.6501,18.8287 14.8134,18.8287 14.8134,18.2336 15.3704,18.2336 15.3704,18.0884 14.8134,18.0884 14.8134,17.7292 15.4539,17.7292 15.4539,17.584 14.6501,17.584 "/>
   <path id="_4" class="fil1" d="M17.8186 18.8287l0.1742 0 -0.5117 -1.2447 -0.1669 0 -0.5117 1.2447 0.1742 0 0.1651 -0.4155 0.5117 0 0.1651 0.4155zm-0.6187 -0.5607l0.1978 -0.4972 0.1978 0.4972 -0.3955 0z"/>
   <path id="_5" class="fil1" d="M20.0418 18.8468c0.2939,0 0.5316,-0.2032 0.5915,-0.5062l-0.1579 0c-0.0472,0.2159 -0.2213,0.3611 -0.4336,0.3611 -0.2667,0 -0.4445,-0.1978 -0.4445,-0.4953 0,-0.2976 0.1778,-0.4953 0.4445,-0.4953 0.1996,0 0.3701,0.1325 0.4264,0.332l0.1597 0c-0.0653,-0.2867 -0.3012,-0.4772 -0.5861,-0.4772 -0.3647,0 -0.6078,0.2558 -0.6078,0.6405 0,0.3847 0.2431,0.6405 0.6078,0.6405z"/>
   <polygon id="_6" class="fil1" points="22.2669,18.8287 23.0707,18.8287 23.0707,18.6835 22.4302,18.6835 22.4302,18.2336 23.0053,18.2336 23.0053,18.0884 22.4302,18.0884 22.4302,17.7292 23.0707,17.7292 23.0707,17.584 22.2669,17.584 "/>
   <path id="_7" class="fil1" d="M25.1015 18.8468c0.3084,0 0.5153,-0.1488 0.5153,-0.372 0,-0.1833 -0.1397,-0.2885 -0.499,-0.3738 -0.2232,-0.0508 -0.3103,-0.1034 -0.3103,-0.1869 0,-0.1216 0.1179,-0.2032 0.2939,-0.2032 0.1633,0 0.2957,0.0998 0.3284,0.2486l0.1488 -0.0363c-0.0526,-0.2141 -0.2431,-0.3574 -0.4772,-0.3574 -0.274,0 -0.4572,0.1397 -0.4572,0.3484 0,0.1687 0.1234,0.2631 0.4409,0.3375 0.2649,0.0617 0.3683,0.1234 0.3683,0.2232 0,0.1361 -0.1415,0.2268 -0.352,0.2268 -0.2322,0 -0.3883,-0.1198 -0.3883,-0.3012l-0.1542 0c0,0.2685 0.2177,0.4463 0.5425,0.4463z"/>
   <g>
    <path class="fil1" d="M0.616 18.2513c-0.0231,0 -0.0419,-0.0188 -0.0419,-0.0419 0,-0.0231 0.0188,-0.0419 0.0419,-0.0419l3.9285 0c0.0231,0 0.0419,0.0188 0.0419,0.0419 0,0.0231 -0.0188,0.0419 -0.0419,0.0419l-3.9285 0z"/>
    <path class="fil1" d="M27.7356 18.2513c-0.0231,0 -0.0419,-0.0188 -0.0419,-0.0419 0,-0.0231 0.0188,-0.0419 0.0419,-0.0419l3.9285 0c0.0231,0 0.0419,0.0188 0.0419,0.0419 0,0.0231 -0.0188,0.0419 -0.0419,0.0419l-3.9285 0z"/>
   </g>
  </g>
  <path class="fil1" d="M-0 16.1634l0.4165 0 0 -0.9076 0.3947 0 0.5626 0.9076 0.46 0 -0.5812 -0.9387c0.258,-0.0653 0.432,-0.2984 0.432,-0.5812 0,-0.3668 -0.2766,-0.6123 -0.6931,-0.6123l-0.9915 0 0 2.1322zm0.4165 -1.2806l0 -0.4787 0.575 0c0.1896,0 0.2859,0.1181 0.2859,0.2393 0,0.1181 -0.0963,0.2393 -0.2859,0.2393l-0.575 0z"/>
  <polygon id="_1_0" class="fil1" points="3.993,16.1634 5.4384,16.1634 5.4384,15.7904 4.4096,15.7904 4.4096,15.2558 5.3265,15.2558 5.3265,14.8828 4.4096,14.8828 4.4096,14.4042 5.4384,14.4042 5.4384,14.0312 3.993,14.0312 "/>
  <polygon id="_2_1" class="fil1" points="7.6038,16.1634 8.0203,16.1634 8.0203,15.2558 8.9372,15.2558 8.9372,14.8828 8.0203,14.8828 8.0203,14.4042 9.0491,14.4042 9.0491,14.0312 7.6038,14.0312 "/>
  <path id="_3_2" class="fil1" d="M11.2145 16.1634l0.4165 0 0 -0.9076 0.3947 0 0.5626 0.9076 0.46 0 -0.5812 -0.9387c0.258,-0.0653 0.432,-0.2984 0.432,-0.5812 0,-0.3668 -0.2766,-0.6123 -0.6931,-0.6123l-0.9915 0 0 2.1322zm0.4165 -1.2806l0 -0.4787 0.575 0c0.1896,0 0.2859,0.1181 0.2859,0.2393 0,0.1181 -0.0963,0.2393 -0.2859,0.2393l-0.575 0z"/>
  <polygon id="_4_3" class="fil1" points="15.2076,16.1634 16.6529,16.1634 16.6529,15.7904 15.6241,15.7904 15.6241,15.2558 16.541,15.2558 16.541,14.8828 15.6241,14.8828 15.6241,14.4042 16.6529,14.4042 16.6529,14.0312 15.2076,14.0312 "/>
  <path id="_5_4" class="fil1" d="M19.5674 16.2069c0.5688,0 0.948,-0.2673 0.948,-0.6652 0,-0.7802 -1.3894,-0.5968 -1.3894,-0.9262 0,-0.1523 0.1772,-0.2549 0.4414,-0.2549 0.2487,0 0.4476,0.1336 0.4973,0.3357l0.3823 -0.0963c-0.0995,-0.3668 -0.4507,-0.6123 -0.8796,-0.6123 -0.5128,0 -0.8547,0.2518 -0.8547,0.6279 0,0.7553 1.3894,0.4911 1.3894,0.9262 0,0.1741 -0.2145,0.2922 -0.5346,0.2922 -0.3388,0 -0.5688,-0.1616 -0.5781,-0.4041l-0.3947 0c0.0093,0.4662 0.3978,0.777 0.9728,0.777z"/>
  <polygon id="_6_5" class="fil1" points="22.6435,16.1634 23.06,16.1634 23.06,15.2558 24.0422,15.2558 24.0422,16.1634 24.4587,16.1634 24.4587,14.0312 24.0422,14.0312 24.0422,14.8828 23.06,14.8828 23.06,14.0312 22.6435,14.0312 "/>
  <polygon id="_7_6" class="fil1" points="26.7547,16.1634 28.2,16.1634 28.2,15.7904 27.1712,15.7904 27.1712,15.2558 28.0881,15.2558 28.0881,14.8828 27.1712,14.8828 27.1712,14.4042 28.2,14.4042 28.2,14.0312 26.7547,14.0312 "/>
  <path id="_8" class="fil1" d="M30.3654 16.1634l0.8299 0c0.6496,0 1.0847,-0.4258 1.0847,-1.0661 0,-0.6403 -0.4351,-1.0661 -1.0847,-1.0661l-0.8299 0 0 2.1322zm0.4165 -0.373l0 -1.3862 0.4134 0c0.4009,0 0.6683,0.2766 0.6683,0.6931 0,0.4165 -0.2673,0.6931 -0.6683,0.6931l-0.4134 0z"/>
 </g>
</svg>
