<?xml version="1.0" encoding="UTF-8"?>
<!DOCTYPE svg PUBLIC "-//W3C//DTD SVG 1.1//EN" "http://www.w3.org/Graphics/SVG/1.1/DTD/svg11.dtd">
<!-- Creator: CorelDRAW 2023 -->
<svg xmlns="http://www.w3.org/2000/svg" xml:space="preserve" width="226.172mm" height="131.175mm" version="1.1" style="shape-rendering:geometricPrecision; text-rendering:geometricPrecision; image-rendering:optimizeQuality; fill-rule:evenodd; clip-rule:evenodd"
viewBox="0 0 32.7439 18.9909"
 xmlns:xlink="http://www.w3.org/1999/xlink"
 xmlns:xodm="http://www.corel.com/coreldraw/odm/2003">
 <defs>
  <style type="text/css">
   <![CDATA[
    .str0 {stroke:#E6E7E8;stroke-width:0.2172;stroke-linecap:round;stroke-linejoin:round;stroke-miterlimit:22.9256}
    .fil2 {fill:none;fill-rule:nonzero}
    .fil0 {fill:#373435}
    .fil1 {fill:#373435;fill-rule:nonzero}
   ]]>
  </style>
 </defs>
 <g id="Layer_x0020_1">
  <metadata id="CorelCorpID_0Corel-Layer"/>
  <path class="fil0" d="M11.447 0l0 0.5709 0 9.5303 0.5709 0 0 -9.5303 3.9349 0 0 0.0002c1.3643,0.0082 2.4678,1.1165 2.4678,2.4827 0,1.3712 -1.1116,2.4829 -2.4829,2.4829 -0.0836,0 -0.1663,-0.0042 -0.2478,-0.0123l0 0 -0.0004 -0 -0.0002 -0 -0.0002 -0 -0.0023 -0.0001c-0.0147,0 -0.0267,0.0119 -0.0267,0.0267 0,0.0069 0.0026,0.0132 0.0069,0.0179l0.4576 0.4879 0.0001 -0c0.0216,0.0234 0.0524,0.038 0.0867,0.038l0.0034 -0 0.0002 -0 0.0001 0 0.0001 0 0.0002 -0c1.5562,-0.1404 2.7758,-1.448 2.7758,-3.0408 0,-1.6815 -1.3591,-3.0454 -3.0386,-3.0535l0 -0.0002 -3.9349 0 -0.5709 0zm1.581 5.8907c0.0619,0.0038 0.1438,0.014 0.2782,0.0413 0.1035,0.021 0.2392,0.0521 0.3924,0.0991 0.1568,0.0481 0.3349,0.1131 0.5223,0.2013 0.1937,0.0912 0.3963,0.2062 0.6,0.344 0.188,0.1272 0.3816,0.2775 0.5751,0.4508 0.1939,0.1736 0.3839,0.368 0.5704,0.5741 0.1874,0.2071 0.3667,0.4204 0.5412,0.6342 0.2263,0.2772 0.4189,0.5215 0.606,0.7587l-0.0007 0.0005c0.1176,0.149 0.2328,0.2952 0.3989,0.502 0.1571,0.1955 0.3086,0.3798 0.4539,0.5496 0.1444,0.1687 0.2827,0.3233 0.4141,0.4605 0.1322,0.138 0.256,0.2576 0.3742,0.362 0.1184,0.1047 0.2334,0.1965 0.3474,0.2786 0.1114,0.0803 0.2246,0.1527 0.3385,0.2191 0.1134,0.0661 0.2258,0.1248 0.3368,0.1785 0.1128,0.0546 0.2222,0.1032 0.3296,0.145 0.1102,0.0429 0.2196,0.0799 0.33,0.1103 0.1071,0.0295 0.2178,0.0539 0.3271,0.0736 0.1216,0.0219 0.2422,0.0381 0.355,0.0492 0.107,0.0105 0.2045,0.0163 0.2962,0.0172 0.092,0.001 0.1808,-0.0027 0.27,-0.011 0.118,-0.011 0.2459,-0.0324 0.3771,-0.057l0.0003 -0.0001 0.0004 -0.0001 0.002 -0.0004 0.0002 -0 0.0002 -0 0.0002 -0 0.0002 -0 0.0002 -0 0.0039 -0.0007 0.0003 -0.0001 0.0003 -0 0.0003 -0.0001 0.0005 -0.0001 0.0003 -0.0001 0.0003 -0 0.0003 -0.0001 0.0003 -0.0001 0.0003 -0 0.0003 -0.0001 0.0003 -0 0.0003 -0.0001 0.0003 -0.0001 0.0003 -0 0.0003 -0.0001 0.0003 -0 0.0003 -0.0001 0.0003 -0 0.0003 -0.0001 0.0003 -0.0001 0.0002 -0 0.0001 -0 0.0003 -0.0001 0.0003 -0 0.0003 -0 0.0003 -0.0001 0.0003 -0 0.0003 -0.0001 0.0002 -0 0.0003 -0 0.0002 -0.0001 0.0003 -0 0.0002 -0 0.0002 -0.0001 0.0002 -0 0.0002 -0 0.0002 -0 0.0002 -0 0.0042 -0.0008 0.0039 -0.0007 0 0 0.0001 -0 0 0 0 0 0.0033 -0.0006 0.0002 -0c0.0003,-0 0.0003,-0 0.0003,-0 0.001,-0.0001 0.0019,-0.0002 0.0029,-0.0002 0.0148,0 0.0268,0.012 0.0268,0.0268 0,0.0084 -0.0039,0.0159 -0.0099,0.0208l0 0.0001 0 0c-0.077,0.0574 -0.164,0.1197 -0.2845,0.1908 -0.1205,0.071 -0.2637,0.1671 -0.374,0.2115 -0.1103,0.0444 -0.1908,0.072 -0.2559,0.0851 -0.0652,0.0131 -0.1636,0.0179 -0.2439,0.0166 -0.4343,-0.0071 -0.9074,-0.1469 -1.2373,-0.2796 -0.0835,-0.0336 -0.1647,-0.0716 -0.2339,-0.1055 -0.0692,-0.0338 -0.1265,-0.0635 -0.1642,-0.0833 -0.0117,-0.0061 -0.0215,-0.0113 -0.0299,-0.0154 -0.0443,-0.0241 -0.0888,-0.049 -0.1334,-0.075 -0.1254,-0.073 -0.2537,-0.1555 -0.3854,-0.2503 -0.129,-0.093 -0.2587,-0.1966 -0.392,-0.3143 -0.1335,-0.118 -0.2685,-0.248 -0.4076,-0.3933 -0.1399,-0.1461 -0.2855,-0.3088 -0.4364,-0.485 -0.15,-0.1752 -0.3051,-0.3638 -0.4651,-0.563 -0.0942,-0.1172 -0.2463,-0.3101 -0.4016,-0.507l-0.0011 0c-0.2045,-0.2593 -0.415,-0.5261 -0.5994,-0.752 -0.1739,-0.2131 -0.3486,-0.4212 -0.5211,-0.6119 -0.1734,-0.1917 -0.3494,-0.3719 -0.528,-0.5317 -0.1674,-0.1498 -0.3411,-0.2841 -0.5149,-0.4017 -0.1815,-0.1228 -0.3583,-0.2235 -0.5241,-0.3016 -0.1612,-0.0759 -0.3132,-0.1314 -0.4465,-0.1723 -0.1369,-0.042 -0.2513,-0.0684 -0.3367,-0.0857 -0.0759,-0.0154 -0.1277,-0.0235 -0.1667,-0.0277l0 -0.571z"/>
  <g id="_2773624107712">
   <path class="fil1" d="M7.3694 18.9909c0.3108,0 0.5192,-0.1499 0.5192,-0.3748 0,-0.1847 -0.1408,-0.2907 -0.5028,-0.3766 -0.2249,-0.0512 -0.3126,-0.1042 -0.3126,-0.1883 0,-0.1225 0.1188,-0.2048 0.2962,-0.2048 0.1646,0 0.298,0.1006 0.3309,0.2505l0.1499 -0.0366c-0.053,-0.2157 -0.245,-0.3602 -0.4808,-0.3602 -0.2761,0 -0.4607,0.1408 -0.4607,0.351 0,0.17 0.1243,0.2651 0.4443,0.3401 0.2669,0.0622 0.3711,0.1243 0.3711,0.2249 0,0.1371 -0.1426,0.2285 -0.3547,0.2285 -0.234,0 -0.3913,-0.1207 -0.3913,-0.3035l-0.1554 0c0,0.2706 0.2194,0.4498 0.5467,0.4498z"/>
   <path id="_1" class="fil1" d="M10.0319 18.9909c0.2852,0 0.4936,-0.2048 0.4936,-0.4882l0 -0.7843 -0.1646 0 0 0.7843c0,0.1956 -0.1335,0.3419 -0.3291,0.3419 -0.1938,0 -0.3328,-0.1389 -0.3328,-0.3419l0 -0.7843 -0.1645 0 0 0.7843c0,0.2852 0.2103,0.4882 0.4973,0.4882z"/>
   <path id="_2" class="fil1" d="M12.2337 18.9726l0.1645 0 0 -0.5997 0.2596 0 0.373 0.5997 0.1938 0 -0.3748 -0.6033c0.1773,-0.0219 0.2943,-0.1517 0.2943,-0.3236 0,-0.1956 -0.1463,-0.3273 -0.3675,-0.3273l-0.543 0 0 1.2542zm0.1645 -0.7459l0 -0.362 0.3785 0c0.1225,0 0.2029,0.0731 0.2029,0.181 0,0.1079 -0.0805,0.181 -0.2029,0.181l-0.3785 0z"/>
   <polygon id="_3" class="fil1" points="14.8707,18.9726 15.0352,18.9726 15.0352,18.3729 15.5965,18.3729 15.5965,18.2266 15.0352,18.2266 15.0352,17.8647 15.6806,17.8647 15.6806,17.7184 14.8707,17.7184 "/>
   <path id="_4" class="fil1" d="M18.0634 18.9726l0.1755 0 -0.5156 -1.2542 -0.1682 0 -0.5156 1.2542 0.1755 0 0.1664 -0.4187 0.5156 0 0.1664 0.4187zm-0.6234 -0.5649l0.1993 -0.501 0.1993 0.501 -0.3986 0z"/>
   <path id="_5" class="fil1" d="M20.3036 18.9909c0.2962,0 0.5357,-0.2048 0.596,-0.5101l-0.1591 0c-0.0475,0.2176 -0.223,0.3638 -0.437,0.3638 -0.2687,0 -0.4479,-0.1993 -0.4479,-0.4991 0,-0.2998 0.1792,-0.4991 0.4479,-0.4991 0.2011,0 0.373,0.1335 0.4296,0.3346l0.1609 0c-0.0658,-0.2889 -0.3035,-0.4808 -0.5905,-0.4808 -0.3675,0 -0.6125,0.2578 -0.6125,0.6454 0,0.3876 0.245,0.6454 0.6125,0.6454z"/>
   <polygon id="_6" class="fil1" points="22.5456,18.9726 23.3556,18.9726 23.3556,18.8263 22.7102,18.8263 22.7102,18.3729 23.2897,18.3729 23.2897,18.2266 22.7102,18.2266 22.7102,17.8647 23.3556,17.8647 23.3556,17.7184 22.5456,17.7184 "/>
   <path id="_7" class="fil1" d="M25.402 18.9909c0.3108,0 0.5192,-0.1499 0.5192,-0.3748 0,-0.1847 -0.1408,-0.2907 -0.5028,-0.3766 -0.2249,-0.0512 -0.3126,-0.1042 -0.3126,-0.1883 0,-0.1225 0.1188,-0.2048 0.2962,-0.2048 0.1646,0 0.298,0.1006 0.3309,0.2505l0.1499 -0.0366c-0.053,-0.2157 -0.245,-0.3602 -0.4808,-0.3602 -0.2761,0 -0.4607,0.1408 -0.4607,0.351 0,0.17 0.1243,0.2651 0.4443,0.3401 0.2669,0.0622 0.3711,0.1243 0.3711,0.2249 0,0.1371 -0.1426,0.2285 -0.3547,0.2285 -0.234,0 -0.3913,-0.1207 -0.3913,-0.3035l-0.1554 0c0,0.2706 0.2194,0.4498 0.5467,0.4498z"/>
   <g>
    <path class="fil1" d="M0.7293 18.3908c-0.0233,0 -0.0422,-0.0189 -0.0422,-0.0423 0,-0.0233 0.0189,-0.0422 0.0422,-0.0422l3.9585 0c0.0233,0 0.0422,0.0189 0.0422,0.0422 0,0.0233 -0.0189,0.0423 -0.0422,0.0423l-3.9585 0z"/>
    <path class="fil1" d="M28.0561 18.3908c-0.0233,0 -0.0422,-0.0189 -0.0422,-0.0423 0,-0.0233 0.0189,-0.0422 0.0422,-0.0422l3.9585 0c0.0233,0 0.0422,0.0189 0.0422,0.0422 0,0.0233 -0.0189,0.0423 -0.0422,0.0423l-3.9585 0z"/>
   </g>
  </g>
  <g>
   <path class="fil2 str0" d="M0.1086 16.2869l0.4197 0 0 -0.9145 0.3978 0 0.5669 0.9145 0.4635 0 -0.5857 -0.9458c0.2599,-0.0658 0.4353,-0.3007 0.4353,-0.5857 0,-0.3696 -0.2787,-0.617 -0.6984,-0.617l-0.9991 0 0 2.1485zm0.4197 -1.2903l0 -0.4823 0.5794 0c0.191,0 0.2881,0.119 0.2881,0.2412 0,0.119 -0.0971,0.2412 -0.2881,0.2412l-0.5794 0z"/>
  </g>
  <g>
   <polygon id="_1_0" class="fil2 str0" points="4.1321,16.2869 5.5885,16.2869 5.5885,15.9111 4.5518,15.9111 4.5518,15.3724 5.4757,15.3724 5.4757,14.9966 4.5518,14.9966 4.5518,14.5142 5.5885,14.5142 5.5885,14.1384 4.1321,14.1384 "/>
  </g>
  <g>
   <polygon id="_2_1" class="fil2 str0" points="7.7705,16.2869 8.1902,16.2869 8.1902,15.3724 9.1141,15.3724 9.1141,14.9966 8.1902,14.9966 8.1902,14.5142 9.2268,14.5142 9.2268,14.1384 7.7705,14.1384 "/>
  </g>
  <g>
   <path id="_3_2" class="fil2 str0" d="M11.4088 16.2869l0.4197 0 0 -0.9145 0.3978 0 0.5669 0.9145 0.4635 0 -0.5857 -0.9458c0.2599,-0.0658 0.4353,-0.3007 0.4353,-0.5857 0,-0.3696 -0.2787,-0.617 -0.6984,-0.617l-0.9991 0 0 2.1485zm0.4197 -1.2903l0 -0.4823 0.5794 0c0.191,0 0.2881,0.119 0.2881,0.2412 0,0.119 -0.0971,0.2412 -0.2881,0.2412l-0.5794 0z"/>
  </g>
  <g>
   <polygon id="_4_3" class="fil2 str0" points="15.4324,16.2869 16.8887,16.2869 16.8887,15.9111 15.8521,15.9111 15.8521,15.3724 16.776,15.3724 16.776,14.9966 15.8521,14.9966 15.8521,14.5142 16.8887,14.5142 16.8887,14.1384 15.4324,14.1384 "/>
  </g>
  <g>
   <path id="_5_4" class="fil2 str0" d="M19.8255 16.3308c0.5731,0 0.9552,-0.2694 0.9552,-0.6702 0,-0.7861 -1.4,-0.6013 -1.4,-0.9333 0,-0.1535 0.1785,-0.2568 0.4447,-0.2568 0.2506,0 0.451,0.1347 0.5011,0.3383l0.3852 -0.0971c-0.1002,-0.3696 -0.4541,-0.617 -0.8863,-0.617 -0.5168,0 -0.8613,0.2537 -0.8613,0.6327 0,0.7611 1.4,0.4948 1.4,0.9333 0,0.1754 -0.2161,0.2944 -0.5387,0.2944 -0.3414,0 -0.5731,-0.1629 -0.5825,-0.4072l-0.3978 0c0.0094,0.4698 0.4009,0.783 0.9803,0.783z"/>
  </g>
  <g>
   <polygon id="_6_5" class="fil2 str0" points="22.9252,16.2869 23.3449,16.2869 23.3449,15.3724 24.3345,15.3724 24.3345,16.2869 24.7542,16.2869 24.7542,14.1384 24.3345,14.1384 24.3345,14.9966 23.3449,14.9966 23.3449,14.1384 22.9252,14.1384 "/>
  </g>
  <g>
   <polygon id="_7_6" class="fil2 str0" points="27.0678,16.2869 28.5241,16.2869 28.5241,15.9111 27.4874,15.9111 27.4874,15.3724 28.4114,15.3724 28.4114,14.9966 27.4874,14.9966 27.4874,14.5142 28.5241,14.5142 28.5241,14.1384 27.0678,14.1384 "/>
  </g>
  <g>
   <path id="_8" class="fil2 str0" d="M30.7061 16.2869l0.8362 0c0.6546,0 1.093,-0.4291 1.093,-1.0743 0,-0.6452 -0.4385,-1.0742 -1.093,-1.0742l-0.8362 0 0 2.1485zm0.4197 -0.3758l0 -1.3968 0.4165 0c0.404,0 0.6734,0.2787 0.6734,0.6984 0,0.4197 -0.2694,0.6984 -0.6734,0.6984l-0.4165 0z"/>
  </g>
  <path id="_9" class="fil1" d="M0.1086 16.2869l0.4197 0 0 -0.9145 0.3978 0 0.5669 0.9145 0.4635 0 -0.5857 -0.9458c0.2599,-0.0658 0.4353,-0.3007 0.4353,-0.5857 0,-0.3696 -0.2787,-0.617 -0.6984,-0.617l-0.9991 0 0 2.1485zm0.4197 -1.2903l0 -0.4823 0.5794 0c0.191,0 0.2881,0.119 0.2881,0.2412 0,0.119 -0.0971,0.2412 -0.2881,0.2412l-0.5794 0z"/>
  <polygon id="_10" class="fil1" points="4.1321,16.2869 5.5885,16.2869 5.5885,15.9111 4.5518,15.9111 4.5518,15.3724 5.4757,15.3724 5.4757,14.9966 4.5518,14.9966 4.5518,14.5142 5.5885,14.5142 5.5885,14.1384 4.1321,14.1384 "/>
  <polygon id="_11" class="fil1" points="7.7705,16.2869 8.1902,16.2869 8.1902,15.3724 9.1141,15.3724 9.1141,14.9966 8.1902,14.9966 8.1902,14.5142 9.2268,14.5142 9.2268,14.1384 7.7705,14.1384 "/>
  <path id="_12" class="fil1" d="M11.4088 16.2869l0.4197 0 0 -0.9145 0.3978 0 0.5669 0.9145 0.4635 0 -0.5857 -0.9458c0.2599,-0.0658 0.4353,-0.3007 0.4353,-0.5857 0,-0.3696 -0.2787,-0.617 -0.6984,-0.617l-0.9991 0 0 2.1485zm0.4197 -1.2903l0 -0.4823 0.5794 0c0.191,0 0.2881,0.119 0.2881,0.2412 0,0.119 -0.0971,0.2412 -0.2881,0.2412l-0.5794 0z"/>
  <polygon id="_13" class="fil1" points="15.4324,16.2869 16.8887,16.2869 16.8887,15.9111 15.8521,15.9111 15.8521,15.3724 16.776,15.3724 16.776,14.9966 15.8521,14.9966 15.8521,14.5142 16.8887,14.5142 16.8887,14.1384 15.4324,14.1384 "/>
  <path id="_14" class="fil1" d="M19.8255 16.3308c0.5731,0 0.9552,-0.2694 0.9552,-0.6702 0,-0.7861 -1.4,-0.6013 -1.4,-0.9333 0,-0.1535 0.1785,-0.2568 0.4447,-0.2568 0.2506,0 0.451,0.1347 0.5011,0.3383l0.3852 -0.0971c-0.1002,-0.3696 -0.4541,-0.617 -0.8863,-0.617 -0.5168,0 -0.8613,0.2537 -0.8613,0.6327 0,0.7611 1.4,0.4948 1.4,0.9333 0,0.1754 -0.2161,0.2944 -0.5387,0.2944 -0.3414,0 -0.5731,-0.1629 -0.5825,-0.4072l-0.3978 0c0.0094,0.4698 0.4009,0.783 0.9803,0.783z"/>
  <polygon id="_15" class="fil1" points="22.9252,16.2869 23.3449,16.2869 23.3449,15.3724 24.3345,15.3724 24.3345,16.2869 24.7542,16.2869 24.7542,14.1384 24.3345,14.1384 24.3345,14.9966 23.3449,14.9966 23.3449,14.1384 22.9252,14.1384 "/>
  <polygon id="_16" class="fil1" points="27.0678,16.2869 28.5241,16.2869 28.5241,15.9111 27.4874,15.9111 27.4874,15.3724 28.4114,15.3724 28.4114,14.9966 27.4874,14.9966 27.4874,14.5142 28.5241,14.5142 28.5241,14.1384 27.0678,14.1384 "/>
  <path id="_17" class="fil1" d="M30.7061 16.2869l0.8362 0c0.6546,0 1.093,-0.4291 1.093,-1.0743 0,-0.6452 -0.4385,-1.0742 -1.093,-1.0742l-0.8362 0 0 2.1485zm0.4197 -0.3758l0 -1.3968 0.4165 0c0.404,0 0.6734,0.2787 0.6734,0.6984 0,0.4197 -0.2694,0.6984 -0.6734,0.6984l-0.4165 0z"/>
 </g>
</svg>
