<?xml version="1.0" encoding="UTF-8"?>
<!DOCTYPE svg PUBLIC "-//W3C//DTD SVG 1.1//EN" "http://www.w3.org/Graphics/SVG/1.1/DTD/svg11.dtd">
<!-- Creator: CorelDRAW 2023 -->
<svg xmlns="http://www.w3.org/2000/svg" xml:space="preserve" width="224.672mm" height="145.765mm" version="1.1" style="shape-rendering:geometricPrecision; text-rendering:geometricPrecision; image-rendering:optimizeQuality; fill-rule:evenodd; clip-rule:evenodd"
viewBox="0 0 32.2799 20.943"
 xmlns:xlink="http://www.w3.org/1999/xlink"
 xmlns:xodm="http://www.corel.com/coreldraw/odm/2003">
 <defs>
  <style type="text/css">
   <![CDATA[
    .fil0 {fill:#373435}
    .fil1 {fill:#373435;fill-rule:nonzero}
   ]]>
  </style>
 </defs>
 <g id="Layer_x0020_1">
  <metadata id="CorelCorpID_0Corel-Layer"/>
  <path class="fil0" d="M11.2516 0l0 0.5665 0 9.4579 0.5665 0 0 -9.4579 3.905 0 0 0.0002c1.3539,0.0081 2.449,1.108 2.449,2.4638 0,1.3608 -1.1032,2.464 -2.464,2.464 -0.083,0 -0.165,-0.0041 -0.2459,-0.0122l0 0 -0.0004 -0 -0.0002 -0 -0.0002 -0 -0.0023 -0.0001c-0.0146,0 -0.0265,0.0118 -0.0265,0.0265 0,0.0068 0.0026,0.0131 0.0069,0.0178l0.4541 0.4842 0.0001 -0c0.0214,0.0232 0.052,0.0378 0.086,0.0378l0.0034 -0 0.0002 -0 0.0001 0 0.0001 0 0.0002 -0c1.5444,-0.1394 2.7548,-1.437 2.7548,-3.0178 0,-1.6687 -1.3487,-3.0223 -3.0156,-3.0304l0 -0.0002 -3.905 0 -0.5665 0zm1.569 5.846c0.0615,0.0038 0.1427,0.0139 0.2761,0.041 0.1027,0.0208 0.2374,0.0517 0.3894,0.0983 0.1556,0.0477 0.3324,0.1122 0.5183,0.1998 0.1922,0.0905 0.3933,0.2046 0.5954,0.3414 0.1866,0.1263 0.3787,0.2754 0.5707,0.4473 0.1925,0.1723 0.381,0.3652 0.5661,0.5697 0.186,0.2056 0.3639,0.4172 0.5371,0.6294 0.2246,0.2751 0.4158,0.5175 0.6014,0.753l-0.0007 0.0005c0.1167,0.1479 0.2311,0.2929 0.3959,0.4982 0.1559,0.1941 0.3063,0.377 0.4505,0.5454 0.1433,0.1675 0.2806,0.3209 0.4109,0.457 0.1311,0.137 0.254,0.2556 0.3713,0.3593 0.1175,0.1039 0.2316,0.195 0.3448,0.2765 0.1106,0.0797 0.2229,0.1516 0.336,0.2174 0.1126,0.0656 0.224,0.1239 0.3342,0.1771 0.112,0.0541 0.2205,0.1024 0.3271,0.1439 0.1094,0.0426 0.218,0.0793 0.3275,0.1095 0.1063,0.0293 0.2161,0.0535 0.3247,0.0731 0.1207,0.0218 0.2403,0.0378 0.3523,0.0488 0.1062,0.0104 0.2029,0.0161 0.2939,0.0171 0.0913,0.0009 0.1794,-0.0027 0.268,-0.0109 0.1171,-0.0109 0.2441,-0.0321 0.3742,-0.0566l0.0003 -0.0001 0.0004 -0.0001 0.002 -0.0004 0.0002 -0 0.0002 -0 0.0002 -0 0.0002 -0 0.0002 -0 0.0038 -0.0007 0.0003 -0.0001 0.0003 -0 0.0003 -0.0001 0.0005 -0.0001 0.0003 -0.0001 0.0003 -0 0.0003 -0.0001 0.0003 -0.0001 0.0003 -0 0.0003 -0.0001 0.0003 -0 0.0003 -0.0001 0.0003 -0.0001 0.0003 -0 0.0003 -0.0001 0.0003 -0 0.0003 -0.0001 0.0003 -0 0.0003 -0.0001 0.0003 -0.0001 0.0002 -0 0.0001 -0 0.0003 -0.0001 0.0003 -0 0.0003 -0 0.0003 -0.0001 0.0003 -0 0.0003 -0.0001 0.0002 -0 0.0003 -0 0.0002 -0.0001 0.0003 -0 0.0002 -0 0.0002 -0.0001 0.0002 -0 0.0002 -0 0.0002 -0 0.0002 -0 0.0042 -0.0008 0.0038 -0.0007 0 0 0.0001 -0 0 0 0 0 0.0033 -0.0006 0.0002 -0c0.0003,-0 0.0003,-0 0.0003,-0 0.0009,-0.0001 0.0019,-0.0002 0.0029,-0.0002 0.0147,0 0.0266,0.0119 0.0266,0.0266 0,0.0083 -0.0038,0.0158 -0.0098,0.0206l0 0.0001 0 0c-0.0764,0.0569 -0.1628,0.1188 -0.2823,0.1893 -0.1196,0.0705 -0.2617,0.1658 -0.3711,0.2099 -0.1094,0.0441 -0.1893,0.0714 -0.254,0.0844 -0.0647,0.013 -0.1623,0.0177 -0.2421,0.0165 -0.431,-0.007 -0.9005,-0.1458 -1.228,-0.2775 -0.0829,-0.0333 -0.1634,-0.0711 -0.2322,-0.1047 -0.0687,-0.0336 -0.1255,-0.063 -0.163,-0.0827 -0.0116,-0.0061 -0.0213,-0.0112 -0.0296,-0.0153 -0.044,-0.0239 -0.0881,-0.0486 -0.1323,-0.0744 -0.1245,-0.0725 -0.2518,-0.1543 -0.3824,-0.2484 -0.128,-0.0923 -0.2568,-0.1951 -0.389,-0.3119 -0.1325,-0.1171 -0.2664,-0.2461 -0.4045,-0.3903 -0.1389,-0.145 -0.2834,-0.3064 -0.433,-0.4813 -0.1488,-0.1739 -0.3028,-0.3611 -0.4615,-0.5587 -0.0934,-0.1163 -0.2444,-0.3077 -0.3985,-0.5031l-0.0011 0c-0.2029,-0.2573 -0.4118,-0.5221 -0.5948,-0.7463 -0.1726,-0.2115 -0.3459,-0.418 -0.5171,-0.6072 -0.1721,-0.1902 -0.3468,-0.369 -0.524,-0.5277 -0.1661,-0.1487 -0.3385,-0.2819 -0.511,-0.3987 -0.1802,-0.1219 -0.3556,-0.2218 -0.5201,-0.2993 -0.16,-0.0753 -0.3109,-0.1304 -0.4431,-0.171 -0.1358,-0.0417 -0.2494,-0.0679 -0.3341,-0.0851 -0.0754,-0.0153 -0.1267,-0.0233 -0.1654,-0.0275l0 -0.5667z"/>
  <g id="_2774571613936">
   <path class="fil1" d="M-0 17.522l0.4165 0 0 -0.9076 0.3947 0 0.5626 0.9076 0.46 0 -0.5812 -0.9387c0.258,-0.0653 0.432,-0.2984 0.432,-0.5812 0,-0.3668 -0.2766,-0.6123 -0.6931,-0.6123l-0.9915 0 0 2.1322zm0.4165 -1.2806l0 -0.4787 0.575 0c0.1896,0 0.2859,0.1181 0.2859,0.2393 0,0.1181 -0.0963,0.2393 -0.2859,0.2393l-0.575 0z"/>
   <polygon id="_1" class="fil1" points="3.993,17.522 5.4383,17.522 5.4383,17.149 4.4095,17.149 4.4095,16.6144 5.3264,16.6144 5.3264,16.2414 4.4095,16.2414 4.4095,15.7628 5.4383,15.7628 5.4383,15.3898 3.993,15.3898 "/>
   <polygon id="_2" class="fil1" points="7.6037,17.522 8.0202,17.522 8.0202,16.6144 8.9371,16.6144 8.9371,16.2414 8.0202,16.2414 8.0202,15.7628 9.049,15.7628 9.049,15.3898 7.6037,15.3898 "/>
   <path id="_3" class="fil1" d="M11.2145 17.522l0.4165 0 0 -0.9076 0.3947 0 0.5626 0.9076 0.46 0 -0.5812 -0.9387c0.258,-0.0653 0.432,-0.2984 0.432,-0.5812 0,-0.3668 -0.2766,-0.6123 -0.6931,-0.6123l-0.9915 0 0 2.1322zm0.4165 -1.2806l0 -0.4787 0.575 0c0.1896,0 0.2859,0.1181 0.2859,0.2393 0,0.1181 -0.0963,0.2393 -0.2859,0.2393l-0.575 0z"/>
   <polygon id="_4" class="fil1" points="15.2075,17.522 16.6528,17.522 16.6528,17.149 15.624,17.149 15.624,16.6144 16.5409,16.6144 16.5409,16.2414 15.624,16.2414 15.624,15.7628 16.6528,15.7628 16.6528,15.3898 15.2075,15.3898 "/>
   <path id="_5" class="fil1" d="M19.5673 17.5655c0.5688,0 0.948,-0.2673 0.948,-0.6651 0,-0.7801 -1.3893,-0.5968 -1.3893,-0.9262 0,-0.1523 0.1772,-0.2549 0.4414,-0.2549 0.2487,0 0.4476,0.1336 0.4973,0.3357l0.3823 -0.0963c-0.0995,-0.3668 -0.4507,-0.6123 -0.8796,-0.6123 -0.5128,0 -0.8547,0.2518 -0.8547,0.6278 0,0.7553 1.3893,0.4911 1.3893,0.9262 0,0.174 -0.2145,0.2922 -0.5346,0.2922 -0.3388,0 -0.5688,-0.1616 -0.5781,-0.4041l-0.3947 0c0.0093,0.4662 0.3978,0.777 0.9728,0.777z"/>
   <polygon id="_6" class="fil1" points="22.6434,17.522 23.0599,17.522 23.0599,16.6144 24.0421,16.6144 24.0421,17.522 24.4586,17.522 24.4586,15.3898 24.0421,15.3898 24.0421,16.2414 23.0599,16.2414 23.0599,15.3898 22.6434,15.3898 "/>
   <polygon id="_7" class="fil1" points="26.7545,17.522 28.1998,17.522 28.1998,17.149 27.171,17.149 27.171,16.6144 28.0879,16.6144 28.0879,16.2414 27.171,16.2414 27.171,15.7628 28.1998,15.7628 28.1998,15.3898 26.7545,15.3898 "/>
   <path id="_8" class="fil1" d="M30.3652 17.522l0.8299 0c0.6496,0 1.0847,-0.4258 1.0847,-1.0661 0,-0.6403 -0.4351,-1.0661 -1.0847,-1.0661l-0.8299 0 0 2.1322zm0.4165 -0.373l0 -1.3862 0.4134 0c0.4009,0 0.6683,0.2766 0.6683,0.6931 0,0.4165 -0.2673,0.6931 -0.6683,0.6931l-0.4134 0z"/>
   <path class="fil1" d="M8.4859 20.943c0.2642,0 0.4415,-0.1275 0.4415,-0.3187 0,-0.157 -0.1197,-0.2472 -0.4275,-0.3202 -0.1912,-0.0435 -0.2658,-0.0886 -0.2658,-0.1601 0,-0.1042 0.101,-0.1741 0.2518,-0.1741 0.1399,0 0.2534,0.0855 0.2814,0.2129l0.1275 -0.0311c-0.0451,-0.1834 -0.2083,-0.3062 -0.4088,-0.3062 -0.2347,0 -0.3917,0.1197 -0.3917,0.2985 0,0.1446 0.1057,0.2254 0.3777,0.2891 0.2269,0.0528 0.3155,0.1057 0.3155,0.1912 0,0.1166 -0.1212,0.1943 -0.3016,0.1943 -0.199,0 -0.3326,-0.1026 -0.3326,-0.258l-0.1321 0c0,0.2301 0.1865,0.3824 0.4648,0.3824z"/>
   <path id="_1_0" class="fil1" d="M10.7496 20.943c0.2425,0 0.4197,-0.1741 0.4197,-0.415l0 -0.6668 -0.1399 0 0 0.6668c0,0.1663 -0.1135,0.2907 -0.2798,0.2907 -0.1648,0 -0.2829,-0.1181 -0.2829,-0.2907l0 -0.6668 -0.1399 0 0 0.6668c0,0.2425 0.1788,0.415 0.4228,0.415z"/>
   <path id="_2_1" class="fil1" d="M12.6216 20.9274l0.1399 0 0 -0.5098 0.2207 0 0.3171 0.5098 0.1648 0 -0.3187 -0.513c0.1508,-0.0187 0.2503,-0.129 0.2503,-0.2751 0,-0.1663 -0.1244,-0.2782 -0.3124,-0.2782l-0.4617 0 0 1.0663zm0.1399 -0.6342l0 -0.3078 0.3218 0c0.1042,0 0.1725,0.0622 0.1725,0.1539 0,0.0917 -0.0684,0.1539 -0.1725,0.1539l-0.3218 0z"/>
   <polygon id="_3_2" class="fil1" points="14.8635,20.9274 15.0034,20.9274 15.0034,20.4176 15.4806,20.4176 15.4806,20.2932 15.0034,20.2932 15.0034,19.9854 15.5521,19.9854 15.5521,19.8611 14.8635,19.8611 "/>
   <path id="_4_3" class="fil1" d="M17.578 20.9274l0.1492 0 -0.4384 -1.0663 -0.143 0 -0.4383 1.0663 0.1492 0 0.1414 -0.356 0.4383 0 0.1414 0.356zm-0.53 -0.4803l0.1694 -0.4259 0.1694 0.4259 -0.3389 0z"/>
   <path id="_5_4" class="fil1" d="M19.4826 20.943c0.2518,0 0.4554,-0.1741 0.5067,-0.4337l-0.1352 0c-0.0404,0.185 -0.1896,0.3093 -0.3715,0.3093 -0.2285,0 -0.3808,-0.1694 -0.3808,-0.4244 0,-0.2549 0.1523,-0.4243 0.3808,-0.4243 0.171,0 0.3171,0.1135 0.3653,0.2844l0.1368 0c-0.056,-0.2456 -0.258,-0.4088 -0.5021,-0.4088 -0.3124,0 -0.5207,0.2192 -0.5207,0.5487 0,0.3295 0.2083,0.5487 0.5207,0.5487z"/>
   <polygon id="_6_5" class="fil1" points="21.3888,20.9274 22.0774,20.9274 22.0774,20.8031 21.5287,20.8031 21.5287,20.4176 22.0215,20.4176 22.0215,20.2932 21.5287,20.2932 21.5287,19.9854 22.0774,19.9854 22.0774,19.8611 21.3888,19.8611 "/>
   <path id="_7_6" class="fil1" d="M23.8173 20.943c0.2642,0 0.4415,-0.1275 0.4415,-0.3187 0,-0.157 -0.1197,-0.2472 -0.4275,-0.3202 -0.1912,-0.0435 -0.2658,-0.0886 -0.2658,-0.1601 0,-0.1042 0.101,-0.1741 0.2518,-0.1741 0.1399,0 0.2534,0.0855 0.2814,0.2129l0.1275 -0.0311c-0.0451,-0.1834 -0.2083,-0.3062 -0.4088,-0.3062 -0.2347,0 -0.3917,0.1197 -0.3917,0.2985 0,0.1446 0.1057,0.2254 0.3777,0.2891 0.2269,0.0528 0.3155,0.1057 0.3155,0.1912 0,0.1166 -0.1212,0.1943 -0.3016,0.1943 -0.199,0 -0.3326,-0.1026 -0.3326,-0.258l-0.1321 0c0,0.2301 0.1865,0.3824 0.4648,0.3824z"/>
   <g>
    <path class="fil1" d="M2.8405 20.4328c-0.0198,0 -0.0359,-0.0161 -0.0359,-0.0359 0,-0.0198 0.0161,-0.0359 0.0359,-0.0359l3.3655 0c0.0198,0 0.0359,0.0161 0.0359,0.0359 0,0.0198 -0.0161,0.0359 -0.0359,0.0359l-3.3655 0z"/>
    <path class="fil1" d="M26.0738 20.4328c-0.0198,0 -0.0359,-0.0161 -0.0359,-0.0359 0,-0.0198 0.0161,-0.0359 0.0359,-0.0359l3.3655 0c0.0198,0 0.0359,0.0161 0.0359,0.0359 0,0.0198 -0.0161,0.0359 -0.0359,0.0359l-3.3655 0z"/>
   </g>
  </g>
 </g>
</svg>
