<?xml version="1.0" encoding="UTF-8"?>
<!DOCTYPE svg PUBLIC "-//W3C//DTD SVG 1.1//EN" "http://www.w3.org/Graphics/SVG/1.1/DTD/svg11.dtd">
<!-- Creator: CorelDRAW 2023 -->
<svg xmlns="http://www.w3.org/2000/svg" xml:space="preserve" width="224.672mm" height="121.915mm" version="1.1" style="shape-rendering:geometricPrecision; text-rendering:geometricPrecision; image-rendering:optimizeQuality; fill-rule:evenodd; clip-rule:evenodd"
viewBox="0 0 47.5442 25.7993"
 xmlns:xlink="http://www.w3.org/1999/xlink"
 xmlns:xodm="http://www.corel.com/coreldraw/odm/2003">
 <defs>
  <style type="text/css">
   <![CDATA[
    .fil1 {fill:#FEFEFE}
    .fil0 {fill:#FEFEFE;fill-rule:nonzero}
   ]]>
  </style>
 </defs>
 <g id="Layer_x0020_1">
  <metadata id="CorelCorpID_0Corel-Layer"/>
  <g id="_2772685564048">
   <path class="fil0" d="M10.613 25.7993c0.4543,0 0.759,-0.2191 0.759,-0.5478 0,-0.2699 -0.2058,-0.4249 -0.7349,-0.5505 -0.3287,-0.0748 -0.457,-0.1523 -0.457,-0.2752 0,-0.179 0.1737,-0.2993 0.4329,-0.2993 0.2405,0 0.4356,0.147 0.4837,0.3661l0.2191 -0.0535c-0.0775,-0.3153 -0.3581,-0.5265 -0.7028,-0.5265 -0.4035,0 -0.6734,0.2058 -0.6734,0.5131 0,0.2485 0.1817,0.3875 0.6494,0.4971 0.3902,0.0908 0.5425,0.1817 0.5425,0.3287 0,0.2004 -0.2084,0.334 -0.5184,0.334 -0.3421,0 -0.5719,-0.1764 -0.5719,-0.4436l-0.2271 0c0,0.3955 0.3207,0.6574 0.799,0.6574z"/>
   <path id="_1" class="fil0" d="M14.5049 25.7993c0.4169,0 0.7215,-0.2993 0.7215,-0.7135l0 -1.1465 -0.2405 0 0 1.1465c0,0.2859 -0.1951,0.4997 -0.481,0.4997 -0.2833,0 -0.4864,-0.2031 -0.4864,-0.4997l0 -1.1465 -0.2405 0 0 1.1465c0,0.4169 0.3073,0.7135 0.7269,0.7135z"/>
   <path id="_2" class="fil0" d="M17.7233 25.7725l0.2405 0 0 -0.8765 0.3795 0 0.5452 0.8765 0.2833 0 -0.5478 -0.8819c0.2592,-0.0321 0.4302,-0.2218 0.4302,-0.473 0,-0.2859 -0.2138,-0.4784 -0.5371,-0.4784l-0.7937 0 0 1.8333zm0.2405 -1.0903l0 -0.5291 0.5532 0c0.179,0 0.2966,0.1069 0.2966,0.2646 0,0.1577 -0.1176,0.2646 -0.2966,0.2646l-0.5532 0z"/>
   <polygon id="_3" class="fil0" points="21.5777,25.7725 21.8182,25.7725 21.8182,24.896 22.6386,24.896 22.6386,24.6822 21.8182,24.6822 21.8182,24.1531 22.7615,24.1531 22.7615,23.9393 21.5777,23.9393 "/>
   <path id="_4" class="fil0" d="M26.2445 25.7725l0.2565 0 -0.7536 -1.8333 -0.2459 0 -0.7536 1.8333 0.2565 0 0.2432 -0.612 0.7536 0 0.2432 0.612zm-0.9113 -0.8258l0.2913 -0.7322 0.2913 0.7322 -0.5826 0z"/>
   <path id="_5" class="fil0" d="M29.519 25.7993c0.4329,0 0.783,-0.2993 0.8712,-0.7456l-0.2325 0c-0.0695,0.318 -0.326,0.5318 -0.6387,0.5318 -0.3928,0 -0.6547,-0.2913 -0.6547,-0.7295 0,-0.4383 0.2619,-0.7296 0.6547,-0.7296 0.294,0 0.5452,0.1951 0.628,0.489l0.2352 0c-0.0962,-0.4222 -0.4436,-0.7028 -0.8632,-0.7028 -0.5371,0 -0.8952,0.3768 -0.8952,0.9434 0,0.5665 0.3581,0.9433 0.8952,0.9433z"/>
   <polygon id="_6" class="fil0" points="32.7961,25.7725 33.98,25.7725 33.98,25.5587 33.0366,25.5587 33.0366,24.896 33.8838,24.896 33.8838,24.6822 33.0366,24.6822 33.0366,24.1531 33.98,24.1531 33.98,23.9393 32.7961,23.9393 "/>
   <path id="_7" class="fil0" d="M36.9712 25.7993c0.4543,0 0.759,-0.2191 0.759,-0.5478 0,-0.2699 -0.2058,-0.4249 -0.7349,-0.5505 -0.3287,-0.0748 -0.457,-0.1523 -0.457,-0.2752 0,-0.179 0.1737,-0.2993 0.4329,-0.2993 0.2405,0 0.4356,0.147 0.4837,0.3661l0.2191 -0.0535c-0.0775,-0.3153 -0.3581,-0.5265 -0.7028,-0.5265 -0.4035,0 -0.6734,0.2058 -0.6734,0.5131 0,0.2485 0.1817,0.3875 0.6494,0.4971 0.3902,0.0908 0.5425,0.1817 0.5425,0.3287 0,0.2004 -0.2084,0.334 -0.5184,0.334 -0.3421,0 -0.5719,-0.1764 -0.5719,-0.4436l-0.2271 0c0,0.3955 0.3207,0.6574 0.799,0.6574z"/>
   <g>
    <path class="fil0" d="M0.9073 24.9222c-0.0341,0 -0.0617,-0.0277 -0.0617,-0.0618 0,-0.0341 0.0277,-0.0617 0.0617,-0.0617l5.7862 0c0.0341,0 0.0617,0.0277 0.0617,0.0617 0,0.0341 -0.0277,0.0618 -0.0617,0.0618l-5.7862 0z"/>
    <path class="fil0" d="M40.8508 24.9222c-0.0341,0 -0.0617,-0.0277 -0.0617,-0.0618 0,-0.0341 0.0277,-0.0617 0.0617,-0.0617l5.7862 0c0.0341,0 0.0617,0.0277 0.0617,0.0617 0,0.0341 -0.0277,0.0618 -0.0617,0.0618l-5.7862 0z"/>
   </g>
  </g>
  <path class="fil0" d="M-0 21.8469l0.6135 0 0 -1.3368 0.5814 0 0.8286 1.3368 0.6775 0 -0.8561 -1.3825c0.38,-0.0961 0.6363,-0.4395 0.6363,-0.8561 0,-0.5402 -0.4074,-0.9018 -1.0209,-0.9018l-1.4604 0 0 3.1405zm0.6135 -1.8861l0 -0.705 0.8469 0c0.2792,0 0.4212,0.1739 0.4212,0.3525 0,0.174 -0.1419,0.3525 -0.4212,0.3525l-0.8469 0z"/>
  <polygon id="_1_0" class="fil0" points="5.8812,21.8469 8.01,21.8469 8.01,21.2975 6.4947,21.2975 6.4947,20.5101 7.8452,20.5101 7.8452,19.9608 6.4947,19.9608 6.4947,19.2558 8.01,19.2558 8.01,18.7065 5.8812,18.7065 "/>
  <polygon id="_2_1" class="fil0" points="11.1994,21.8469 11.8128,21.8469 11.8128,20.5101 13.1633,20.5101 13.1633,19.9608 11.8128,19.9608 11.8128,19.2558 13.3281,19.2558 13.3281,18.7065 11.1994,18.7065 "/>
  <path id="_3_2" class="fil0" d="M16.5175 21.8469l0.6135 0 0 -1.3368 0.5814 0 0.8286 1.3368 0.6775 0 -0.8561 -1.3825c0.38,-0.0961 0.6363,-0.4395 0.6363,-0.8561 0,-0.5402 -0.4074,-0.9018 -1.0209,-0.9018l-1.4604 0 0 3.1405zm0.6135 -1.8861l0 -0.705 0.8469 0c0.2792,0 0.4212,0.1739 0.4212,0.3525 0,0.174 -0.1419,0.3525 -0.4212,0.3525l-0.8469 0z"/>
  <polygon id="_4_3" class="fil0" points="22.3987,21.8469 24.5275,21.8469 24.5275,21.2975 23.0122,21.2975 23.0122,20.5101 24.3627,20.5101 24.3627,19.9608 23.0122,19.9608 23.0122,19.2558 24.5275,19.2558 24.5275,18.7065 22.3987,18.7065 "/>
  <path id="_5_4" class="fil0" d="M28.8202 21.911c0.8378,0 1.3963,-0.3937 1.3963,-0.9797 0,-1.1491 -2.0463,-0.879 -2.0463,-1.3642 0,-0.2243 0.2609,-0.3754 0.6501,-0.3754 0.3662,0 0.6592,0.1968 0.7325,0.4944l0.5631 -0.1419c-0.1465,-0.5402 -0.6638,-0.9019 -1.2956,-0.9019 -0.7553,0 -1.2589,0.3708 -1.2589,0.9247 0,1.1124 2.0463,0.7233 2.0463,1.3642 0,0.2564 -0.3159,0.4303 -0.7874,0.4303 -0.499,0 -0.8377,-0.238 -0.8515,-0.5951l-0.5814 0c0.0137,0.6867 0.586,1.1445 1.4329,1.1445z"/>
  <polygon id="_6_5" class="fil0" points="33.3509,21.8469 33.9644,21.8469 33.9644,20.5101 35.411,20.5101 35.411,21.8469 36.0244,21.8469 36.0244,18.7065 35.411,18.7065 35.411,19.9608 33.9644,19.9608 33.9644,18.7065 33.3509,18.7065 "/>
  <polygon id="_7_6" class="fil0" points="39.4061,21.8469 41.5348,21.8469 41.5348,21.2975 40.0196,21.2975 40.0196,20.5101 41.37,20.5101 41.37,19.9608 40.0196,19.9608 40.0196,19.2558 41.5348,19.2558 41.5348,18.7065 39.4061,18.7065 "/>
  <path id="_8" class="fil0" d="M44.7242 21.8469l1.2223 0c0.9568,0 1.5977,-0.6272 1.5977,-1.5702 0,-0.943 -0.6409,-1.5702 -1.5977,-1.5702l-1.2223 0 0 3.1405zm0.6135 -0.5494l0 -2.0417 0.6089 0c0.5905,0 0.9843,0.4074 0.9843,1.0209 0,0.6135 -0.3937,1.0209 -0.9843,1.0209l-0.6089 0z"/>
  <path class="fil1" d="M19.8891 7.8184c0.6429,0 1.1642,0.5213 1.1642,1.1642 0,0.6429 -0.5213,1.1642 -1.1642,1.1642 -0.6429,0 -1.1642,-0.5213 -1.1642,-1.1642 0,-0.6429 0.5213,-1.1642 1.1642,-1.1642zm-0.4963 -7.1033l0.0222 0 0.0225 0 0.0229 0 0.0232 0 0.0235 0 0.0238 0 0.0242 0c0.4614,0.0002 1.083,0.0021 1.6246,0.0192 0.6081,0.0191 1.1153,0.0575 1.54,0.15 0.4247,0.0925 0.767,0.2391 1.0756,0.4439 0.3087,0.2047 0.5837,0.4675 0.8037,0.764 0.22,0.2964 0.385,0.6264 0.5011,1.0665 0.1161,0.44 0.1834,0.99 0.2078,1.5126 0.0245,0.5225 0.0061,1.0175 -0.107,1.4392 -0.113,0.4217 -0.3209,0.7701 -0.5409,1.0512 -0.22,0.2811 -0.4522,0.495 -0.77,0.712 -0.3178,0.217 -0.7211,0.4369 -1.0481,0.6387 -0.327,0.2017 -0.5776,0.385 -0.7395,0.547 -0.162,0.162 -0.2353,0.3025 -0.2109,0.44 0.0244,0.1375 0.1467,0.272 0.3484,0.4614 0.2016,0.1894 0.4827,0.4339 0.8219,0.9106 0.3392,0.4767 0.7364,1.1856 1.1061,1.8426 0.3698,0.657 0.712,1.262 1.0939,1.7999 0.382,0.5378 0.8037,1.0084 1.1918,1.3721 0.3881,0.3636 0.7425,0.6202 1.0725,0.8067 0.3301,0.1864 0.6357,0.3025 1.0085,0.382 0.3728,0.0794 0.8128,0.1221 1.204,0.1405 0.3911,0.0183 0.7333,0.0123 0.9106,-0.003 0.1772,-0.0154 0.1895,-0.0397 0.1864,-0.1712 -0.0031,-0.1314 -0.0214,-0.3697 -0.0459,-0.495 -0.0244,-0.1253 -0.055,-0.1376 -0.1436,-0.1467 -0.0886,-0.0092 -0.2352,-0.0153 -0.4156,-0.058 -0.1803,-0.0428 -0.3941,-0.1223 -0.6722,-0.3301 -0.278,-0.2078 -0.6203,-0.5439 -1.2254,-1.2864 -0.605,-0.7426 -1.4729,-1.8916 -2.1757,-2.8878 -0.7028,-0.9962 -1.2406,-1.8395 -1.5187,-2.3101 -0.278,-0.4706 -0.2963,-0.5685 -0.278,-0.6509 0.0183,-0.0825 0.0733,-0.1498 0.2108,-0.2109 0.1376,-0.0611 0.3575,-0.1161 0.6967,-0.3055 0.3392,-0.1895 0.7976,-0.5134 1.1729,-0.8602 0.3754,-0.3469 0.6679,-0.7166 0.8949,-1.1474 0.227,-0.4309 0.3887,-0.9229 0.4765,-1.4184 0.0879,-0.4955 0.102,-0.9945 -0.021,-1.5356 -0.1229,-0.5412 -0.383,-1.1246 -0.6677,-1.5849 -0.2846,-0.4604 -0.5939,-0.7977 -0.9418,-1.0577 -0.3479,-0.2601 -0.7345,-0.4429 -1.2581,-0.5558 -0.5236,-0.1129 -1.1842,-0.1562 -1.6938,-0.1777 -0.4216,-0.0179 -0.7398,-0.0209 -1.0999,-0.0215l0 -0.0001 -0.0831 0 -0.0208 0 -0.021 0 -0.0211 0 -0.0212 0 -0.0214 0 -0.0215 0 -0.0217 0 -0.0218 0 -0.022 0 -0.0221 0 -0.0223 0 -6.7938 0 0 0.7151 4.2911 0 0.0207 0 0.0212 0 0.0215 0 0.0218 0z"/>
 </g>
</svg>
