<?xml version="1.0" encoding="UTF-8"?>
<!DOCTYPE svg PUBLIC "-//W3C//DTD SVG 1.1//EN" "http://www.w3.org/Graphics/SVG/1.1/DTD/svg11.dtd">
<!-- Creator: CorelDRAW 2023 -->
<svg xmlns="http://www.w3.org/2000/svg" xml:space="preserve" width="226.172mm" height="121.915mm" version="1.1" style="shape-rendering:geometricPrecision; text-rendering:geometricPrecision; image-rendering:optimizeQuality; fill-rule:evenodd; clip-rule:evenodd"
viewBox="0 0 48.1132 25.9349"
 xmlns:xlink="http://www.w3.org/1999/xlink"
 xmlns:xodm="http://www.corel.com/coreldraw/odm/2003">
 <defs>
  <style type="text/css">
   <![CDATA[
    .str0 {stroke:#E6E7E8;stroke-width:0.3191;stroke-linecap:round;stroke-linejoin:round;stroke-miterlimit:22.9256}
    .fil1 {fill:none;fill-rule:nonzero}
    .fil2 {fill:#FEFEFE}
    .fil0 {fill:#FEFEFE;fill-rule:nonzero}
   ]]>
  </style>
 </defs>
 <g id="Layer_x0020_1">
  <metadata id="CorelCorpID_0Corel-Layer"/>
  <g id="_2773365836944">
   <path class="fil0" d="M10.8284 25.9349c0.4567,0 0.763,-0.2203 0.763,-0.5507 0,-0.2713 -0.2069,-0.4272 -0.7388,-0.5534 -0.3304,-0.0752 -0.4594,-0.1531 -0.4594,-0.2767 0,-0.18 0.1746,-0.3009 0.4352,-0.3009 0.2418,0 0.4379,0.1478 0.4863,0.368l0.2203 -0.0537c-0.0779,-0.317 -0.36,-0.5292 -0.7065,-0.5292 -0.4057,0 -0.677,0.2069 -0.677,0.5158 0,0.2498 0.1827,0.3895 0.6528,0.4997 0.3922,0.0913 0.5453,0.1827 0.5453,0.3304 0,0.2015 -0.2095,0.3358 -0.5212,0.3358 -0.3439,0 -0.5749,-0.1773 -0.5749,-0.4459l-0.2283 0c0,0.3976 0.3224,0.6609 0.8032,0.6609z"/>
   <path id="_1" class="fil0" d="M14.7407 25.9349c0.4191,0 0.7253,-0.3009 0.7253,-0.7173l0 -1.1525 -0.2418 0 0 1.1525c0,0.2874 -0.1961,0.5024 -0.4836,0.5024 -0.2848,0 -0.4889,-0.2042 -0.4889,-0.5024l0 -1.1525 -0.2418 0 0 1.1525c0,0.4191 0.3089,0.7173 0.7307,0.7173z"/>
   <path id="_2" class="fil0" d="M17.976 25.908l0.2418 0 0 -0.8811 0.3815 0 0.548 0.8811 0.2848 0 -0.5507 -0.8865c0.2606,-0.0322 0.4325,-0.223 0.4325,-0.4755 0,-0.2874 -0.2149,-0.4809 -0.54,-0.4809l-0.7979 0 0 1.8429zm0.2418 -1.0961l0 -0.5319 0.5561 0c0.18,0 0.2982,0.1074 0.2982,0.266 0,0.1585 -0.1182,0.266 -0.2982,0.266l-0.5561 0z"/>
   <polygon id="_3" class="fil0" points="21.8506,25.908 22.0924,25.908 22.0924,25.0269 22.9171,25.0269 22.9171,24.8119 22.0924,24.8119 22.0924,24.28 23.0407,24.28 23.0407,24.0651 21.8506,24.0651 "/>
   <path id="_4" class="fil0" d="M26.542 25.908l0.2579 0 -0.7576 -1.8429 -0.2471 0 -0.7576 1.8429 0.2579 0 0.2445 -0.6152 0.7576 0 0.2445 0.6152zm-0.9161 -0.8301l0.2928 -0.7361 0.2928 0.7361 -0.5856 0z"/>
   <path id="_5" class="fil0" d="M29.8337 25.9349c0.4352,0 0.7871,-0.3009 0.8758,-0.7495l-0.2337 0c-0.0698,0.3197 -0.3277,0.5346 -0.6421,0.5346 -0.3949,0 -0.6582,-0.2928 -0.6582,-0.7334 0,-0.4406 0.2633,-0.7334 0.6582,-0.7334 0.2955,0 0.548,0.1961 0.6313,0.4916l0.2364 0c-0.0967,-0.4245 -0.4459,-0.7065 -0.8677,-0.7065 -0.54,0 -0.8999,0.3788 -0.8999,0.9483 0,0.5695 0.36,0.9483 0.8999,0.9483z"/>
   <polygon id="_6" class="fil0" points="33.1281,25.908 34.3182,25.908 34.3182,25.6931 33.3698,25.6931 33.3698,25.0269 34.2214,25.0269 34.2214,24.8119 33.3698,24.8119 33.3698,24.28 34.3182,24.28 34.3182,24.0651 33.1281,24.0651 "/>
   <path id="_7" class="fil0" d="M37.3251 25.9349c0.4567,0 0.763,-0.2203 0.763,-0.5507 0,-0.2713 -0.2069,-0.4272 -0.7388,-0.5534 -0.3304,-0.0752 -0.4594,-0.1531 -0.4594,-0.2767 0,-0.18 0.1746,-0.3009 0.4352,-0.3009 0.2418,0 0.4379,0.1478 0.4863,0.368l0.2203 -0.0537c-0.0779,-0.317 -0.36,-0.5292 -0.7065,-0.5292 -0.4057,0 -0.677,0.2069 -0.677,0.5158 0,0.2498 0.1827,0.3895 0.6528,0.4997 0.3922,0.0913 0.5453,0.1827 0.5453,0.3304 0,0.2015 -0.2095,0.3358 -0.5212,0.3358 -0.3439,0 -0.5749,-0.1773 -0.5749,-0.4459l-0.2283 0c0,0.3976 0.3224,0.6609 0.8032,0.6609z"/>
   <g>
    <path class="fil0" d="M1.0716 25.0532c-0.0342,0 -0.0621,-0.0278 -0.0621,-0.0621 0,-0.0342 0.0278,-0.0621 0.0621,-0.0621l5.8166 0c0.0342,0 0.0621,0.0278 0.0621,0.0621 0,0.0343 -0.0278,0.0621 -0.0621,0.0621l-5.8166 0z"/>
    <path class="fil0" d="M41.225 25.0532c-0.0342,0 -0.0621,-0.0278 -0.0621,-0.0621 0,-0.0342 0.0278,-0.0621 0.0621,-0.0621l5.8166 0c0.0343,0 0.0621,0.0278 0.0621,0.0621 0,0.0343 -0.0278,0.0621 -0.0621,0.0621l-5.8166 0z"/>
   </g>
  </g>
  <g>
   <path class="fil1 str0" d="M0.1595 21.9617l0.6167 0 0 -1.3438 0.5845 0 0.8329 1.3438 0.6811 0 -0.8606 -1.3898c0.382,-0.0966 0.6397,-0.4418 0.6397,-0.8606 0,-0.543 -0.4096,-0.9066 -1.0262,-0.9066l-1.468 0 0 3.157zm0.6167 -1.896l0 -0.7087 0.8514 0c0.2807,0 0.4234,0.1749 0.4234,0.3543 0,0.1749 -0.1427,0.3544 -0.4234,0.3544l-0.8514 0z"/>
  </g>
  <g>
   <polygon id="_1_0" class="fil1 str0" points="6.0717,21.9617 8.2116,21.9617 8.2116,21.4095 6.6884,21.4095 6.6884,20.6179 8.0459,20.6179 8.0459,20.0657 6.6884,20.0657 6.6884,19.357 8.2116,19.357 8.2116,18.8048 6.0717,18.8048 "/>
  </g>
  <g>
   <polygon id="_2_1" class="fil1 str0" points="11.4178,21.9617 12.0345,21.9617 12.0345,20.6179 13.392,20.6179 13.392,20.0657 12.0345,20.0657 12.0345,19.357 13.5577,19.357 13.5577,18.8048 11.4178,18.8048 "/>
  </g>
  <g>
   <path id="_3_2" class="fil1 str0" d="M16.7639 21.9617l0.6167 0 0 -1.3438 0.5845 0 0.8329 1.3438 0.6811 0 -0.8606 -1.3898c0.382,-0.0966 0.6397,-0.4418 0.6397,-0.8606 0,-0.543 -0.4096,-0.9066 -1.0262,-0.9066l-1.468 0 0 3.157zm0.6167 -1.896l0 -0.7087 0.8514 0c0.2807,0 0.4234,0.1749 0.4234,0.3543 0,0.1749 -0.1427,0.3544 -0.4234,0.3544l-0.8514 0z"/>
  </g>
  <g>
   <polygon id="_4_3" class="fil1 str0" points="22.676,21.9617 24.8159,21.9617 24.8159,21.4095 23.2927,21.4095 23.2927,20.6179 24.6503,20.6179 24.6503,20.0657 23.2927,20.0657 23.2927,19.357 24.8159,19.357 24.8159,18.8048 22.676,18.8048 "/>
  </g>
  <g>
   <path id="_5_4" class="fil1 str0" d="M29.1312 22.0262c0.8422,0 1.4036,-0.3958 1.4036,-0.9848 0,-1.1551 -2.0571,-0.8836 -2.0571,-1.3714 0,-0.2255 0.2623,-0.3774 0.6535,-0.3774 0.3682,0 0.6627,0.1979 0.7363,0.497l0.5661 -0.1427c-0.1473,-0.5431 -0.6673,-0.9066 -1.3024,-0.9066 -0.7593,0 -1.2655,0.3728 -1.2655,0.9296 0,1.1183 2.0571,0.7271 2.0571,1.3714 0,0.2577 -0.3175,0.4326 -0.7915,0.4326 -0.5016,0 -0.8422,-0.2393 -0.856,-0.5983l-0.5845 0c0.0138,0.6903 0.589,1.1505 1.4404,1.1505z"/>
  </g>
  <g>
   <polygon id="_6_5" class="fil1 str0" points="33.6857,21.9617 34.3024,21.9617 34.3024,20.6179 35.7566,20.6179 35.7566,21.9617 36.3733,21.9617 36.3733,18.8048 35.7566,18.8048 35.7566,20.0657 34.3024,20.0657 34.3024,18.8048 33.6857,18.8048 "/>
  </g>
  <g>
   <polygon id="_7_6" class="fil1 str0" points="39.7728,21.9617 41.9127,21.9617 41.9127,21.4095 40.3894,21.4095 40.3894,20.6179 41.747,20.6179 41.747,20.0657 40.3894,20.0657 40.3894,19.357 41.9127,19.357 41.9127,18.8048 39.7728,18.8048 "/>
  </g>
  <g>
   <path id="_8" class="fil1 str0" d="M45.1189 21.9617l1.2287 0c0.9618,0 1.6061,-0.6305 1.6061,-1.5785 0,-0.948 -0.6443,-1.5785 -1.6061,-1.5785l-1.2287 0 0 3.157zm0.6167 -0.5522l0 -2.0525 0.6121 0c0.5936,0 0.9894,0.4096 0.9894,1.0262 0,0.6167 -0.3958,1.0262 -0.9894,1.0262l-0.6121 0z"/>
  </g>
  <path id="_9" class="fil0" d="M0.1595 21.9617l0.6167 0 0 -1.3438 0.5845 0 0.8329 1.3438 0.6811 0 -0.8606 -1.3898c0.382,-0.0966 0.6397,-0.4418 0.6397,-0.8606 0,-0.543 -0.4096,-0.9066 -1.0262,-0.9066l-1.468 0 0 3.157zm0.6167 -1.896l0 -0.7087 0.8514 0c0.2807,0 0.4234,0.1749 0.4234,0.3543 0,0.1749 -0.1427,0.3544 -0.4234,0.3544l-0.8514 0z"/>
  <polygon id="_10" class="fil0" points="6.0717,21.9617 8.2116,21.9617 8.2116,21.4095 6.6884,21.4095 6.6884,20.6179 8.0459,20.6179 8.0459,20.0657 6.6884,20.0657 6.6884,19.357 8.2116,19.357 8.2116,18.8048 6.0717,18.8048 "/>
  <polygon id="_11" class="fil0" points="11.4178,21.9617 12.0345,21.9617 12.0345,20.6179 13.392,20.6179 13.392,20.0657 12.0345,20.0657 12.0345,19.357 13.5577,19.357 13.5577,18.8048 11.4178,18.8048 "/>
  <path id="_12" class="fil0" d="M16.7639 21.9617l0.6167 0 0 -1.3438 0.5845 0 0.8329 1.3438 0.6811 0 -0.8606 -1.3898c0.382,-0.0966 0.6397,-0.4418 0.6397,-0.8606 0,-0.543 -0.4096,-0.9066 -1.0262,-0.9066l-1.468 0 0 3.157zm0.6167 -1.896l0 -0.7087 0.8514 0c0.2807,0 0.4234,0.1749 0.4234,0.3543 0,0.1749 -0.1427,0.3544 -0.4234,0.3544l-0.8514 0z"/>
  <polygon id="_13" class="fil0" points="22.676,21.9617 24.8159,21.9617 24.8159,21.4095 23.2927,21.4095 23.2927,20.6179 24.6503,20.6179 24.6503,20.0657 23.2927,20.0657 23.2927,19.357 24.8159,19.357 24.8159,18.8048 22.676,18.8048 "/>
  <path id="_14" class="fil0" d="M29.1312 22.0262c0.8422,0 1.4036,-0.3958 1.4036,-0.9848 0,-1.1551 -2.0571,-0.8836 -2.0571,-1.3714 0,-0.2255 0.2623,-0.3774 0.6535,-0.3774 0.3682,0 0.6627,0.1979 0.7363,0.497l0.5661 -0.1427c-0.1473,-0.5431 -0.6673,-0.9066 -1.3024,-0.9066 -0.7593,0 -1.2655,0.3728 -1.2655,0.9296 0,1.1183 2.0571,0.7271 2.0571,1.3714 0,0.2577 -0.3175,0.4326 -0.7915,0.4326 -0.5016,0 -0.8422,-0.2393 -0.856,-0.5983l-0.5845 0c0.0138,0.6903 0.589,1.1505 1.4404,1.1505z"/>
  <polygon id="_15" class="fil0" points="33.6857,21.9617 34.3024,21.9617 34.3024,20.6179 35.7566,20.6179 35.7566,21.9617 36.3733,21.9617 36.3733,18.8048 35.7566,18.8048 35.7566,20.0657 34.3024,20.0657 34.3024,18.8048 33.6857,18.8048 "/>
  <polygon id="_16" class="fil0" points="39.7728,21.9617 41.9127,21.9617 41.9127,21.4095 40.3894,21.4095 40.3894,20.6179 41.747,20.6179 41.747,20.0657 40.3894,20.0657 40.3894,19.357 41.9127,19.357 41.9127,18.8048 39.7728,18.8048 "/>
  <path id="_17" class="fil0" d="M45.1189 21.9617l1.2287 0c0.9618,0 1.6061,-0.6305 1.6061,-1.5785 0,-0.948 -0.6443,-1.5785 -1.6061,-1.5785l-1.2287 0 0 3.157zm0.6167 -0.5522l0 -2.0525 0.6121 0c0.5936,0 0.9894,0.4096 0.9894,1.0262 0,0.6167 -0.3958,1.0262 -0.9894,1.0262l-0.6121 0z"/>
  <path class="fil2" d="M20.1532 7.8595c0.6463,0 1.1703,0.524 1.1703,1.1703 0,0.6463 -0.524,1.1703 -1.1703,1.1703 -0.6463,0 -1.1703,-0.524 -1.1703,-1.1703 0,-0.6463 0.524,-1.1703 1.1703,-1.1703zm-0.4989 -7.1407l0.0223 0 0.0226 0 0.023 0 0.0234 0 0.0236 0 0.024 0 0.0243 0c0.4638,0.0002 1.0887,0.0021 1.6331,0.0193 0.6113,0.0192 1.1211,0.0578 1.5481,0.1508 0.427,0.093 0.7711,0.2404 1.0813,0.4462 0.3103,0.2058 0.5868,0.47 0.8079,0.768 0.2212,0.2979 0.387,0.6297 0.5037,1.0721 0.1167,0.4423 0.1844,0.9953 0.2089,1.5206 0.0246,0.5252 0.0062,1.0229 -0.1075,1.4468 -0.1136,0.4239 -0.3225,0.7741 -0.5437,1.0567 -0.2211,0.2826 -0.4546,0.4976 -0.7741,0.7157 -0.3195,0.2181 -0.7249,0.4392 -1.0536,0.642 -0.3287,0.2028 -0.5806,0.387 -0.7434,0.5498 -0.1628,0.1628 -0.2366,0.3041 -0.212,0.4423 0.0245,0.1382 0.1475,0.2734 0.3503,0.4639 0.2027,0.1904 0.4853,0.4362 0.8263,0.9154 0.341,0.4792 0.7403,1.1919 1.112,1.8523 0.3718,0.6604 0.7157,1.2687 1.0997,1.8093 0.384,0.5406 0.8079,1.0137 1.198,1.3793 0.3901,0.3655 0.7464,0.6235 1.0782,0.8109 0.3318,0.1874 0.639,0.3041 1.0138,0.384 0.3748,0.0798 0.8171,0.1228 1.2103,0.1412 0.3932,0.0184 0.7372,0.0124 0.9154,-0.003 0.1782,-0.0154 0.1905,-0.04 0.1874,-0.1721 -0.0031,-0.1321 -0.0215,-0.3717 -0.0461,-0.4976 -0.0245,-0.1259 -0.0553,-0.1383 -0.1444,-0.1475 -0.0891,-0.0093 -0.2365,-0.0153 -0.4177,-0.0583 -0.1812,-0.043 -0.3962,-0.1229 -0.6758,-0.3318 -0.2795,-0.2089 -0.6236,-0.5468 -1.2318,-1.2932 -0.6082,-0.7465 -1.4806,-1.9015 -2.1872,-2.9029 -0.7065,-1.0014 -1.2471,-1.8492 -1.5267,-2.3222 -0.2795,-0.4731 -0.2979,-0.5715 -0.2794,-0.6544 0.0184,-0.0829 0.0737,-0.1505 0.2119,-0.212 0.1383,-0.0615 0.3594,-0.1167 0.7004,-0.3071 0.341,-0.1905 0.8018,-0.5161 1.1791,-0.8647 0.3774,-0.3487 0.6714,-0.7204 0.8996,-1.1535 0.2282,-0.4331 0.3907,-0.9278 0.479,-1.4258 0.0884,-0.4981 0.1025,-0.9997 -0.0211,-1.5437 -0.1236,-0.5441 -0.385,-1.1305 -0.6712,-1.5932 -0.2861,-0.4628 -0.597,-0.8019 -0.9467,-1.0633 -0.3497,-0.2614 -0.7384,-0.4452 -1.2647,-0.5587 -0.5263,-0.1135 -1.1905,-0.157 -1.7027,-0.1787 -0.4238,-0.018 -0.7437,-0.021 -1.1057,-0.0216l0 -0.0001 -0.0836 0 -0.0209 0 -0.0211 0 -0.0212 0 -0.0213 0 -0.0215 0 -0.0216 0 -0.0218 0 -0.022 0 -0.0221 0 -0.0222 0 -0.0224 0 -6.8295 0 0 0.7188 4.3137 0 0.0208 0 0.0213 0 0.0216 0 0.0219 0z"/>
 </g>
</svg>
